<?xml version="1.0" encoding="utf-8"?><!DOCTYPE svg PUBLIC "-//W3C//DTD SVG 1.1//EN" "http://www.w3.org/Graphics/SVG/1.1/DTD/svg11.dtd"><svg version="1.1" id="logo" xmlns="http://www.w3.org/2000/svg" xmlns:xlink="http://www.w3.org/1999/xlink" x="0px" y="0px" viewBox="0 0 253.89 82.34" style="enable-background:new 0 0 253.89 82.34;" xml:space="preserve"><path fill="#fff" d="M199.26,60.5H209v3H87.44l7.77,18.84H80.31L73,63.5H0v-3H71.78L64.15,41,60.6,42.82,58.17,54.7H56.74L54,9.39,56,0H69.6L64.71,23.31a74.49,74.49,0,0,1-2.39,7.84h.32a52.46,52.46,0,0,1,5.37-7l8.51-9.25H92.06l-17.26,18L86.2,60.5H194.81L194,62.72h4.42ZM17.56,30.55a25.86,25.86,0,0,1,2.73-7.75,4.62,4.62,0,0,1,4-2.62c1.69,0,2.53,1.1,2.53,3.3a32.64,32.64,0,0,1-.53,4.26l-4.6,22.18h13.6l3.9-19.09a26.67,26.67,0,0,1,2.69-8,4.78,4.78,0,0,1,4.2-2.67,2.3,2.3,0,0,1,1.8.74,3.1,3.1,0,0,1,.67,2.14,19.39,19.39,0,0,1-.5,4.68L43.51,49.92H54L51.59,9.42a12.93,12.93,0,0,0-6.26,1.74,16,16,0,0,0-5.23,5.5h-.29a10.06,10.06,0,0,0-3.14-5.39,9.57,9.57,0,0,0-6.35-1.88A12.66,12.66,0,0,0,23.61,11a14.3,14.3,0,0,0-4.82,5.64h-.28l.56-6.57H8.21L-.19,49.92H13.42Zm103-3.72,5.34-14.7h2.78v-.35H126l.38-1A13.13,13.13,0,0,1,127,9.28a5,5,0,0,1,.63-1,2.18,2.18,0,0,1,.69-.56,1.72,1.72,0,0,1,.78-.18,2.85,2.85,0,0,1,.4,0,2.11,2.11,0,0,1,.38.1.94.94,0,0,1,.28.16.31.31,0,0,1,.11.23c0,.07,0,.11-.08.11h0l0,0-.17,0a.48.48,0,0,0-.4.17.69.69,0,0,0-.15.46.59.59,0,0,0,.64.64.75.75,0,0,0,.58-.23,1,1,0,0,0,.21-.66,1.14,1.14,0,0,0-.13-.55,1.4,1.4,0,0,0-.38-.43,1.53,1.53,0,0,0-.57-.29,2.74,2.74,0,0,0-.73-.1,3.26,3.26,0,0,0-2.27.94,6.67,6.67,0,0,0-1.66,2.71l-.36,1h-2.56v.35h2.42l-5.34,14.7Zm8.19-4.63,1.66-4.59.44-.77c.55-1,1-1.78,1.48-2.4A12.05,12.05,0,0,1,133.47,13a4.05,4.05,0,0,1,.94-.76,1.68,1.68,0,0,1,.76-.21.79.79,0,0,1,.52.14.39.39,0,0,1,.18.29c0,.08,0,.12-.07.12h0l0,0a.58.58,0,0,0-.19,0,.5.5,0,0,0-.27.07.91.91,0,0,0-.21.18.77.77,0,0,0-.14.25,1,1,0,0,0-.05.29.74.74,0,0,0,.07.31.73.73,0,0,0,.41.36.9.9,0,0,0,.28,0,.68.68,0,0,0,.35-.09.75.75,0,0,0,.27-.23,1.2,1.2,0,0,0,.17-.36,2,2,0,0,0,0-.43,1.25,1.25,0,0,0-.33-.9,1.18,1.18,0,0,0-.9-.34,1.91,1.91,0,0,0-.88.22,3.58,3.58,0,0,0-1,.73,10.83,10.83,0,0,0-1.11,1.35c-.4.56-.84,1.26-1.32,2.08l1.54-4.22h-1.3l-3.8,10.42Zm9.16-.71a2.22,2.22,0,0,0,.84.65,2.67,2.67,0,0,0,1.12.22,3.9,3.9,0,0,0,1.25-.21,5.24,5.24,0,0,0,1.22-.63,6.71,6.71,0,0,0,1.12-1,9,9,0,0,0,1-1.28,2.65,2.65,0,0,0,.58.3,2.4,2.4,0,0,0,.74.11,3.25,3.25,0,0,0,.49-.05,1.93,1.93,0,0,0,.61-.23,2.9,2.9,0,0,0,.67-.51,3.37,3.37,0,0,0,.33-.39l-1.34,3.7h1.3l1.84-5.05.46-.81c.4-.71.79-1.34,1.16-1.87a8.73,8.73,0,0,1,1.08-1.34,4,4,0,0,1,1.06-.81,2.45,2.45,0,0,1,1.08-.26,1.68,1.68,0,0,1,.62.1,1.3,1.3,0,0,1,.43.29,1.26,1.26,0,0,1,.25.44,1.92,1.92,0,0,1,.08.55,3.65,3.65,0,0,1-.15,1q-.15.54-.36,1.14c-.15.4-.31.81-.48,1.24s-.33.84-.47,1.26-.27.8-.37,1.18a4.52,4.52,0,0,0-.14,1,2.23,2.23,0,0,0,.14.81,1.81,1.81,0,0,0,.42.67,2,2,0,0,0,.7.46,2.63,2.63,0,0,0,1,.16,3.09,3.09,0,0,0,1.28-.27,4.45,4.45,0,0,0,1.18-.81,9.34,9.34,0,0,0,1.16-1.38c.28-.4.57-.86.87-1.36a5.29,5.29,0,0,0-.13.54,5.35,5.35,0,0,0-.11,1,2.77,2.77,0,0,0,.15.94,2.14,2.14,0,0,0,.42.72,1.94,1.94,0,0,0,.69.46,2.56,2.56,0,0,0,.95.16,4.17,4.17,0,0,0,1.36-.22,4.54,4.54,0,0,0,1.29-.75A9,9,0,0,0,166.48,20,17.39,17.39,0,0,0,167.82,18v0a.86.86,0,0,1,0,.17,8.18,8.18,0,0,0-.07.95,3.24,3.24,0,0,0,.87,2.47,3.35,3.35,0,0,0,2.45.83,5.35,5.35,0,0,0,1.84-.32,6.21,6.21,0,0,0,1.62-.92,8,8,0,0,0,1.41-1.39,11.79,11.79,0,0,0,.84-1.21l-1.34,3.68h1.31l1.84-5.05.46-.81c.4-.71.79-1.34,1.15-1.87a9.38,9.38,0,0,1,1.09-1.34,4.12,4.12,0,0,1,1-.81,2.53,2.53,0,0,1,1.09-.26,1.68,1.68,0,0,1,.62.1,1.3,1.3,0,0,1,.43.29,1.26,1.26,0,0,1,.25.44,1.92,1.92,0,0,1,.08.55,3.65,3.65,0,0,1-.15,1q-.15.54-.36,1.14c-.15.4-.31.81-.48,1.24s-.33.84-.47,1.26-.27.8-.37,1.18a4.52,4.52,0,0,0-.14,1,2.23,2.23,0,0,0,.14.81,1.81,1.81,0,0,0,.42.67,2,2,0,0,0,.7.46,2.63,2.63,0,0,0,1,.16,3.09,3.09,0,0,0,1.28-.27,4.45,4.45,0,0,0,1.18-.81,9.34,9.34,0,0,0,1.16-1.38c.36-.52.74-1.12,1.13-1.8,0,.11-.06.22-.08.33a6.74,6.74,0,0,0-.13,1.3,4.32,4.32,0,0,0,.12,1.05,2.16,2.16,0,0,0,.36.83,1.62,1.62,0,0,0,.63.56,2,2,0,0,0,.92.19,3.51,3.51,0,0,0,2.29-1,11.38,11.38,0,0,0,2.27-2.89,6.51,6.51,0,0,0-.18.83,4.91,4.91,0,0,0-.06.74,3,3,0,0,0,.14.94,1.85,1.85,0,0,0,.42.72,1.82,1.82,0,0,0,.68.46,2.52,2.52,0,0,0,.95.16,3.17,3.17,0,0,0,1.29-.26,4.22,4.22,0,0,0,1.19-.8,9.31,9.31,0,0,0,1.16-1.37c.39-.56.8-1.21,1.23-2l.45-.81-.23-.16-.45.8a19.83,19.83,0,0,1-1.13,1.83,8.16,8.16,0,0,1-1.08,1.29,3.89,3.89,0,0,1-1.1.76,2.71,2.71,0,0,1-1.14.26,1.29,1.29,0,0,1-1-.36,1.45,1.45,0,0,1-.32-1,3.38,3.38,0,0,1,.06-.6q.06-.32.15-.66c.06-.23.13-.46.21-.7s.17-.48.25-.7l3.92-10.79h-1.3l-2.39,6.58a3.85,3.85,0,0,0-.09-.86,1.94,1.94,0,0,0-.29-.67,1.43,1.43,0,0,0-.54-.43,2.1,2.1,0,0,0-.84-.15,3.86,3.86,0,0,0-1,.14,5.3,5.3,0,0,0-1.12.42,6.54,6.54,0,0,0-1.13.73,7,7,0,0,0-1.08,1,9.19,9.19,0,0,0-1,1.39,9.45,9.45,0,0,0-.73,1.67l-.44.78c-.39.69-.77,1.29-1.13,1.81a8.74,8.74,0,0,1-1.09,1.29,4.31,4.31,0,0,1-1.08.78,2.61,2.61,0,0,1-1.11.26,1.33,1.33,0,0,1-1-.36,1.27,1.27,0,0,1-.33-.89,3.24,3.24,0,0,1,.15-.9,10.89,10.89,0,0,1,.36-1.11c.15-.39.3-.8.47-1.22s.33-.85.48-1.26A10.4,10.4,0,0,0,185.7,15a4.38,4.38,0,0,0,.15-1.09,2.83,2.83,0,0,0-.14-.87,2.35,2.35,0,0,0-.42-.72,2,2,0,0,0-.7-.49,2.38,2.38,0,0,0-1-.18,2.92,2.92,0,0,0-1.17.24,4,4,0,0,0-1.1.73,7.51,7.51,0,0,0-1.08,1.23,19.55,19.55,0,0,0-1.14,1.74l1.38-3.78h-1.3L177.31,17l-.43.77a12.32,12.32,0,0,1-1,1.52,8.56,8.56,0,0,1-1.3,1.32,6.48,6.48,0,0,1-1.55.94,4.4,4.4,0,0,1-1.76.36,2.18,2.18,0,0,1-1.62-.54,2.55,2.55,0,0,1-.51-1.77,8.26,8.26,0,0,1,.14-1.57,10.4,10.4,0,0,1,.4-1.48,11.72,11.72,0,0,0,1.88-.14A6.67,6.67,0,0,0,173,16a5,5,0,0,0,1-.54,4.18,4.18,0,0,0,.76-.67,2.84,2.84,0,0,0,.48-.76,2,2,0,0,0,.17-.83A1.42,1.42,0,0,0,175,12a2.11,2.11,0,0,0-1.39-.41,3.88,3.88,0,0,0-1.73.41,6.16,6.16,0,0,0-1.61,1.14,8,8,0,0,0-1.32,1.73A8.83,8.83,0,0,0,168,17l-.45.79a17.05,17.05,0,0,1-1.19,1.85,8.27,8.27,0,0,1-1.19,1.28,4.33,4.33,0,0,1-1.21.76,3.46,3.46,0,0,1-1.27.25,1.28,1.28,0,0,1-1-.36,1.41,1.41,0,0,1-.33-1,3.2,3.2,0,0,1,.05-.59q.06-.32.15-.66c.06-.24.14-.47.21-.71s.16-.48.25-.7l2.1-5.81h2.77v-.35h-2.63l.83-2.3h-1.3l-.83,2.3h-2.57v.35h2.43l-1.8,5-.39.69c-.39.69-.77,1.29-1.13,1.81a8.74,8.74,0,0,1-1.09,1.29,4.31,4.31,0,0,1-1.08.78,2.58,2.58,0,0,1-1.11.26,1.33,1.33,0,0,1-1-.36,1.27,1.27,0,0,1-.33-.89,3.24,3.24,0,0,1,.15-.9,10.89,10.89,0,0,1,.36-1.11c.15-.39.31-.8.48-1.22s.32-.85.47-1.26a10.4,10.4,0,0,0,.36-1.22,4.38,4.38,0,0,0,.15-1.09,2.83,2.83,0,0,0-.14-.87,2,2,0,0,0-.42-.72,2,2,0,0,0-.7-.49,2.35,2.35,0,0,0-1-.18,2.92,2.92,0,0,0-1.17.24,4,4,0,0,0-1.1.73,7.51,7.51,0,0,0-1.08,1.23,19.55,19.55,0,0,0-1.14,1.74l1.38-3.78h-1.3l-1.92,5.29-.41.72a3.42,3.42,0,0,1-.52.72,3,3,0,0,1-.56.47,2.4,2.4,0,0,1-.57.26,2.07,2.07,0,0,1-.53.08,1,1,0,0,1-.65-.18,1.19,1.19,0,0,1-.37-.48c.12-.22.23-.45.34-.68s.2-.48.28-.73a11.59,11.59,0,0,0,.33-1.26,7.38,7.38,0,0,0,.13-1.32,5.5,5.5,0,0,0-.13-1.16,2.86,2.86,0,0,0-.44-1,2.17,2.17,0,0,0-.82-.67,2.71,2.71,0,0,0-1.24-.25,4.26,4.26,0,0,0-1.82.41,6.09,6.09,0,0,0-1.67,1.15,8.2,8.2,0,0,0-1.36,1.73,8.66,8.66,0,0,0-1.1,3.19,6.69,6.69,0,0,0-.07,1,4.79,4.79,0,0,0,.18,1.37A3,3,0,0,0,137.86,21.49ZM191,19a15.11,15.11,0,0,1,.62-2,12.75,12.75,0,0,1,1.11-2.22A9.63,9.63,0,0,1,194,13.19a5,5,0,0,1,1.23-.92,2.46,2.46,0,0,1,1.09-.3,1.27,1.27,0,0,1,.48.08,1,1,0,0,1,.42.27,1.34,1.34,0,0,1,.28.49,2,2,0,0,1,.11.75,5.19,5.19,0,0,1-.13,1.11A9.43,9.43,0,0,1,197,16a14.82,14.82,0,0,1-.59,1.39c-.23.46-.48.92-.75,1.36a14.54,14.54,0,0,1-.87,1.25,7.78,7.78,0,0,1-.94,1,4.7,4.7,0,0,1-1,.68,2.11,2.11,0,0,1-1,.26,1,1,0,0,1-.87-.4,1.86,1.86,0,0,1-.27-1.07A7.39,7.39,0,0,1,191,19Zm-20.44-4.4a8.74,8.74,0,0,1,1-1.36,4.58,4.58,0,0,1,1.11-.9,2.34,2.34,0,0,1,1.13-.32,1.37,1.37,0,0,1,.36,0,.73.73,0,0,1,.29.15.65.65,0,0,1,.19.26.88.88,0,0,1,.07.39,2.43,2.43,0,0,1-.18.92,3.64,3.64,0,0,1-.47.81,3.79,3.79,0,0,1-1.47,1.15,5.54,5.54,0,0,1-1.19.39,8.4,8.4,0,0,1-1.65.18A9.61,9.61,0,0,1,170.56,14.55Zm-32,3.94a12.54,12.54,0,0,1,.34-1.5,10.46,10.46,0,0,1,.82-2,7.78,7.78,0,0,1,1.09-1.59,5.22,5.22,0,0,1,1.28-1,2.85,2.85,0,0,1,1.36-.36,1.71,1.71,0,0,1,.79.16,1.59,1.59,0,0,1,.51.45,1.75,1.75,0,0,1,.27.67,4.09,4.09,0,0,1,.08.8,6.2,6.2,0,0,1-.09,1,9.61,9.61,0,0,1-.22,1,2,2,0,0,0-.52.29,1.37,1.37,0,0,0-.37.39,1.62,1.62,0,0,0-.22.46,2.24,2.24,0,0,0-.07.51,2.12,2.12,0,0,0,0,.44,1.62,1.62,0,0,0,.15.42A9.56,9.56,0,0,1,143,20a7,7,0,0,1-1,1,4,4,0,0,1-1,.66,2.5,2.5,0,0,1-1,.24c-1,0-1.47-.7-1.47-2.08A8.65,8.65,0,0,1,138.6,18.49Zm-48,25.17A19.62,19.62,0,0,0,90,46.24a14.33,14.33,0,0,0-.23,2.45,8.31,8.31,0,0,0,.22,2,4.48,4.48,0,0,0,.68,1.57,3.22,3.22,0,0,0,1.18,1,3.81,3.81,0,0,0,1.76.37,6.6,6.6,0,0,0,4.31-1.81,22.18,22.18,0,0,0,4.3-5.47,14.31,14.31,0,0,0-.35,1.56,10.48,10.48,0,0,0-.11,1.41,5.77,5.77,0,0,0,.26,1.77,3.67,3.67,0,0,0,.79,1.36,3.52,3.52,0,0,0,1.3.88,4.88,4.88,0,0,0,1.78.3,6.08,6.08,0,0,0,2.44-.49,8.08,8.08,0,0,0,2.24-1.52,16.5,16.5,0,0,0,2.2-2.59q1.11-1.57,2.32-3.71v0c0,.1,0,.2,0,.3a12.68,12.68,0,0,0-.13,1.79,6.17,6.17,0,0,0,1.63,4.67,6.38,6.38,0,0,0,4.63,1.57,9.59,9.59,0,0,0,3.48-.62,11.85,11.85,0,0,0,3.07-1.73,15.36,15.36,0,0,0,2.66-2.63,23.24,23.24,0,0,0,1.7-2.46c-.12.42-.23.84-.31,1.24a9.57,9.57,0,0,0-.21,1.89,5.22,5.22,0,0,0,.28,1.77,3.81,3.81,0,0,0,.79,1.36,3.67,3.67,0,0,0,1.27.88,4.56,4.56,0,0,0,1.7.3,6.33,6.33,0,0,0,2.67-.61,10.65,10.65,0,0,0,2.57-1.71,15.58,15.58,0,0,0,2.31-2.61A20.77,20.77,0,0,0,145,45.41c.26-.57.5-1.17.73-1.81s.44-1.32.61-2a21.15,21.15,0,0,0,.41-2.16,15.24,15.24,0,0,0,.16-2.24,13.92,13.92,0,0,0-.08-1.48,6.93,6.93,0,0,0-.25-1.21,2.13,2.13,0,0,0-.43-.81.78.78,0,0,0-.62-.3.83.83,0,0,0-.59.23.69.69,0,0,0-.25.53.87.87,0,0,0,.15.47,4.23,4.23,0,0,1,.36.69,6.64,6.64,0,0,1,.36,1.21,10.69,10.69,0,0,1,.15,2,15.63,15.63,0,0,1-.35,3.38,17.85,17.85,0,0,1-1,3.18,18.73,18.73,0,0,1-1.68,3.06,14.21,14.21,0,0,1-2.08,2.47,9.39,9.39,0,0,1-2.29,1.63,5,5,0,0,1-2.3.59,2.48,2.48,0,0,1-1.85-.65,2.58,2.58,0,0,1-.63-1.85,8.29,8.29,0,0,1,.31-2,31.26,31.26,0,0,1,.95-3L139,33.69h-2.46L133,43.58,132.14,45a23.25,23.25,0,0,1-1.94,2.86,16.64,16.64,0,0,1-2.46,2.5,12.31,12.31,0,0,1-2.92,1.77,8.38,8.38,0,0,1-3.32.67,4.07,4.07,0,0,1-3.07-1,4.76,4.76,0,0,1-1-3.33,15.38,15.38,0,0,1,.28-3,18.29,18.29,0,0,1,.75-2.8,20.94,20.94,0,0,0,3.55-.27,13.28,13.28,0,0,0,2.86-.82,9.88,9.88,0,0,0,1.88-1,8.59,8.59,0,0,0,1.44-1.27,5.24,5.24,0,0,0,.91-1.45,4.07,4.07,0,0,0,.32-1.56,2.66,2.66,0,0,0-1-2.19,4,4,0,0,0-2.61-.78,7.47,7.47,0,0,0-3.27.78,11.3,11.3,0,0,0-3,2.16,15.19,15.19,0,0,0-2.5,3.27,16.91,16.91,0,0,0-1.64,4L114.61,45a37.8,37.8,0,0,1-2.13,3.45,15.93,15.93,0,0,1-2,2.44,7.54,7.54,0,0,1-2.07,1.44,5.05,5.05,0,0,1-2.15.47,2.39,2.39,0,0,1-1.89-.68,2.65,2.65,0,0,1-.6-1.82,6.46,6.46,0,0,1,.1-1.12c.08-.41.17-.83.29-1.26s.25-.87.4-1.33.31-.89.47-1.32l7.4-20.37h-2.46l-4.51,12.43a7.42,7.42,0,0,0-.17-1.63,3.27,3.27,0,0,0-.55-1.27,2.65,2.65,0,0,0-1-.81,3.84,3.84,0,0,0-1.58-.29,7.74,7.74,0,0,0-2,.27,10,10,0,0,0-2.11.8,13.47,13.47,0,0,0-2.14,1.37,12.65,12.65,0,0,0-2,2,16.19,16.19,0,0,0-1.8,2.61A18.33,18.33,0,0,0,90.62,43.66Zm29.6-4.75a14.9,14.9,0,0,1,1.89-2.56,8.92,8.92,0,0,1,2.1-1.7,4.35,4.35,0,0,1,2.13-.62,2.43,2.43,0,0,1,.68.09,1.32,1.32,0,0,1,.92.76,1.83,1.83,0,0,1,.13.75,4.4,4.4,0,0,1-.34,1.72,6.67,6.67,0,0,1-.9,1.55,7,7,0,0,1-1.28,1.27,7.42,7.42,0,0,1-1.48.9,10.9,10.9,0,0,1-2.26.74,15.79,15.79,0,0,1-3.12.33A19.24,19.24,0,0,1,120.22,38.91ZM93.56,43.5a23.7,23.7,0,0,1,2.08-4.19,16.67,16.67,0,0,1,2.32-3,9.09,9.09,0,0,1,2.31-1.74,4.72,4.72,0,0,1,2.07-.58,2.74,2.74,0,0,1,.9.15,1.83,1.83,0,0,1,.78.51,2.64,2.64,0,0,1,.55.93,4.13,4.13,0,0,1,.21,1.42,10,10,0,0,1-.26,2.1,18.13,18.13,0,0,1-.73,2.46c-.31.85-.69,1.72-1.12,2.61a26.84,26.84,0,0,1-1.42,2.58,25.84,25.84,0,0,1-1.63,2.36,13.88,13.88,0,0,1-1.79,1.92A8.45,8.45,0,0,1,96,52.37a4,4,0,0,1-1.83.47,1.84,1.84,0,0,1-1.63-.74,3.45,3.45,0,0,1-.52-2,13.27,13.27,0,0,1,.39-2.85A26.92,26.92,0,0,1,93.56,43.5ZM217,34.8a3.38,3.38,0,0,0-1.2-1,3.78,3.78,0,0,0-1.74-.38,6.63,6.63,0,0,0-4.28,1.77,20.92,20.92,0,0,0-4.22,5.32l2.67-7.32h-2.46L202,43.58,201.15,45a6.89,6.89,0,0,1-1,1.35,5.56,5.56,0,0,1-1.06.88,4.06,4.06,0,0,1-1.07.49,3.73,3.73,0,0,1-1,.15,2,2,0,0,1-1.25-.34,2.19,2.19,0,0,1-.68-.89c.23-.42.44-.85.64-1.29s.37-.9.53-1.38a18.66,18.66,0,0,0,.62-2.37,13.13,13.13,0,0,0,.24-2.49A9.13,9.13,0,0,0,196.9,37a5.12,5.12,0,0,0-.83-1.85,4.24,4.24,0,0,0-1.53-1.27,5.35,5.35,0,0,0-2.35-.47,8.12,8.12,0,0,0-3.43.78,11.36,11.36,0,0,0-3.16,2.17A14.94,14.94,0,0,0,183,39.6a15.9,15.9,0,0,0-1.7,4.11l0,.11L180.61,45c-.74,1.31-1.45,2.45-2.14,3.43a15.93,15.93,0,0,1-2.05,2.44,7.55,7.55,0,0,1-2.06,1.45,5,5,0,0,1-2.15.48,2.36,2.36,0,0,1-1.88-.68,2.65,2.65,0,0,1-.61-1.82,6.52,6.52,0,0,1,.11-1.12c.07-.41.17-.83.28-1.27s.26-.88.41-1.32.31-.89.47-1.32l7.42-20.37h-2.48l-6.75,18.58h0L168.31,45a22.18,22.18,0,0,1-1.94,2.86,15.74,15.74,0,0,1-2.46,2.5A12.12,12.12,0,0,1,161,52.17a8.35,8.35,0,0,1-3.32.67,4.06,4.06,0,0,1-3.06-1,4.72,4.72,0,0,1-1-3.33,16.22,16.22,0,0,1,.27-3,17.23,17.23,0,0,1,.76-2.8,21,21,0,0,0,3.55-.27,13.19,13.19,0,0,0,2.85-.82,10,10,0,0,0,1.89-1,8.13,8.13,0,0,0,1.43-1.27,5.28,5.28,0,0,0,.92-1.45,4.06,4.06,0,0,0,.31-1.56,2.68,2.68,0,0,0-1-2.19,4,4,0,0,0-2.62-.78,7.54,7.54,0,0,0-3.27.78,11.41,11.41,0,0,0-3,2.16,14.57,14.57,0,0,0-2.5,3.27,16.91,16.91,0,0,0-1.69,4.12,15.87,15.87,0,0,0-.39,1.94,14.28,14.28,0,0,0-.12,1.79,6.2,6.2,0,0,0,1.62,4.67,6.41,6.41,0,0,0,4.64,1.57,9.57,9.57,0,0,0,3.47-.62,11.69,11.69,0,0,0,3.07-1.73,15,15,0,0,0,2.66-2.63,23.87,23.87,0,0,0,1.73-2.49c-.13.44-.25.86-.33,1.27a10.08,10.08,0,0,0-.19,1.89,5.48,5.48,0,0,0,.26,1.77,3.67,3.67,0,0,0,.79,1.36,3.57,3.57,0,0,0,1.29.88,4.94,4.94,0,0,0,1.79.3,6.08,6.08,0,0,0,2.44-.49,8.43,8.43,0,0,0,2.25-1.52,17.07,17.07,0,0,0,2.21-2.59c.7-1,1.44-2.19,2.21-3.54,0,0,0,.06,0,.08a13.41,13.41,0,0,0-.14,1.87,9.09,9.09,0,0,0,.35,2.6,5.61,5.61,0,0,0,1,2,4.29,4.29,0,0,0,1.58,1.22,5.14,5.14,0,0,0,2.12.42,7.34,7.34,0,0,0,2.37-.41,10,10,0,0,0,2.3-1.18,12.82,12.82,0,0,0,2.11-1.84,16.11,16.11,0,0,0,1.84-2.41,4.15,4.15,0,0,0,1.09.56,4.64,4.64,0,0,0,1.4.2,5.77,5.77,0,0,0,.92-.09,3.76,3.76,0,0,0,1.15-.42,5.8,5.8,0,0,0,1.27-1,6.73,6.73,0,0,0,.66-.78L195.81,60.5l-.59,1.61h2.46l.58-1.61,3.79-10.4a6.27,6.27,0,0,0,.21,1.63,2.91,2.91,0,0,0,.58,1.11,2.22,2.22,0,0,0,1,.63,4.5,4.5,0,0,0,1.45.2,9.21,9.21,0,0,0,3.27-.64,11.85,11.85,0,0,0,3.32-1.92,15.82,15.82,0,0,0,2.95-3.21,17,17,0,0,0,2.2-4.52,17.76,17.76,0,0,0,.66-2.63,14.5,14.5,0,0,0,.22-2.43,8.57,8.57,0,0,0-.21-2A4.79,4.79,0,0,0,217,34.8Zm-60.62,4.11a14.93,14.93,0,0,1,1.9-2.56,8.53,8.53,0,0,1,2.1-1.7,4.29,4.29,0,0,1,2.13-.62,2.48,2.48,0,0,1,.68.09,1.35,1.35,0,0,1,.55.27,1.39,1.39,0,0,1,.36.49,1.82,1.82,0,0,1,.14.75,4.59,4.59,0,0,1-.34,1.72,6.67,6.67,0,0,1-.9,1.55,7.33,7.33,0,0,1-1.28,1.27,7.48,7.48,0,0,1-1.49.9,10.79,10.79,0,0,1-2.25.74,16,16,0,0,1-3.12.33A20,20,0,0,1,156.39,38.91Zm38,3.51a3,3,0,0,0-.7.74,3.08,3.08,0,0,0-.41.88,3.4,3.4,0,0,0-.13,1,3.86,3.86,0,0,0,.09.84,3.43,3.43,0,0,0,.29.79,18.38,18.38,0,0,1-1.63,2.56,13.06,13.06,0,0,1-1.85,2,7.87,7.87,0,0,1-1.94,1.25,4.67,4.67,0,0,1-1.95.44q-2.78,0-2.77-3.91a16.65,16.65,0,0,1,.22-2.59,22.15,22.15,0,0,1,.64-2.83,20.21,20.21,0,0,1,1.54-3.85,15,15,0,0,1,2.07-3,9.31,9.31,0,0,1,2.41-1.94,5.29,5.29,0,0,1,2.56-.69,3.27,3.27,0,0,1,1.51.32,2.55,2.55,0,0,1,1,.85,3.43,3.43,0,0,1,.51,1.25A8.26,8.26,0,0,1,195.9,38a12.19,12.19,0,0,1-.16,2,19,19,0,0,1-.42,1.94A3.41,3.41,0,0,0,194.34,42.42Zm21.18-4.14c-.07.5-.18,1-.31,1.61s-.29,1.16-.48,1.78-.4,1.25-.65,1.88a22.1,22.1,0,0,1-2.31,4.6,16,16,0,0,1-2.49,2.9,8.26,8.26,0,0,1-2.36,1.52A5.52,5.52,0,0,1,205,53,2.4,2.4,0,0,1,204,52.8a1.9,1.9,0,0,1-.73-.58,2.34,2.34,0,0,1-.43-.88,4.72,4.72,0,0,1-.13-1.09,8.92,8.92,0,0,1,.27-2,22.91,22.91,0,0,1,.76-2.43c.32-.86.71-1.74,1.15-2.65s.94-1.79,1.47-2.65A27.83,27.83,0,0,1,208,38.08a16.25,16.25,0,0,1,1.82-2,8.85,8.85,0,0,1,1.86-1.37,3.84,3.84,0,0,1,1.82-.51,1.83,1.83,0,0,1,1.61.74,3.41,3.41,0,0,1,.52,2A9.62,9.62,0,0,1,215.52,38.28ZM253,34a2.29,2.29,0,0,0-1.72-.65,3.83,3.83,0,0,0-1.66.41,6.91,6.91,0,0,0-1.81,1.39,20.78,20.78,0,0,0-2.09,2.56,46,46,0,0,0-2.49,3.92l2.9-8h-2.46l-3.63,10L239.22,45a23.25,23.25,0,0,1-1.94,2.86,16.18,16.18,0,0,1-2.46,2.5,12.31,12.31,0,0,1-2.92,1.77,8.38,8.38,0,0,1-3.32.67,4.07,4.07,0,0,1-3.07-1,4.76,4.76,0,0,1-1-3.33,15.38,15.38,0,0,1,.28-3,18.29,18.29,0,0,1,.75-2.8,20.94,20.94,0,0,0,3.55-.27,13.28,13.28,0,0,0,2.86-.82,9.88,9.88,0,0,0,1.88-1,8.59,8.59,0,0,0,1.44-1.27,5.24,5.24,0,0,0,.91-1.45,4.07,4.07,0,0,0,.32-1.56,2.66,2.66,0,0,0-1-2.19,4,4,0,0,0-2.61-.78,7.47,7.47,0,0,0-3.27.78,11.3,11.3,0,0,0-3,2.16,15.19,15.19,0,0,0-2.5,3.27,17.29,17.29,0,0,0-1.68,4.12,14.18,14.18,0,0,0-.39,1.94,12.68,12.68,0,0,0-.13,1.79,6.17,6.17,0,0,0,1.63,4.67,6.38,6.38,0,0,0,4.63,1.57,9.59,9.59,0,0,0,3.48-.62,11.85,11.85,0,0,0,3.07-1.73,15.36,15.36,0,0,0,2.66-2.63A24.11,24.11,0,0,0,239,46.48l-2.51,6.88h2.48l3.13-8.67.83-1.46c1-1.84,2-3.35,2.8-4.53a23.92,23.92,0,0,1,2.23-2.81,7.63,7.63,0,0,1,1.78-1.43,3.17,3.17,0,0,1,1.44-.41,1.54,1.54,0,0,1,1,.27.75.75,0,0,1,.34.54c0,.16,0,.24-.13.24l-.09,0a.15.15,0,0,1-.09-.06,2,2,0,0,0-.35,0,1,1,0,0,0-.52.13,1.5,1.5,0,0,0-.65.82,1.79,1.79,0,0,0-.09.54,1.35,1.35,0,0,0,.12.59,1.34,1.34,0,0,0,.33.42,1.43,1.43,0,0,0,.45.26,1.88,1.88,0,0,0,.52.08,1.36,1.36,0,0,0,.67-.17,1.57,1.57,0,0,0,.51-.45,2.08,2.08,0,0,0,.31-.67,3.12,3.12,0,0,0,.11-.82A2.35,2.35,0,0,0,253,34ZM227.3,38.91a14.9,14.9,0,0,1,1.89-2.56,8.92,8.92,0,0,1,2.1-1.7,4.35,4.35,0,0,1,2.13-.62,2.43,2.43,0,0,1,.68.09,1.32,1.32,0,0,1,.92.76,1.83,1.83,0,0,1,.13.75,4.4,4.4,0,0,1-.34,1.72,6.67,6.67,0,0,1-.9,1.55,7,7,0,0,1-1.28,1.27,7.42,7.42,0,0,1-1.48.9,10.7,10.7,0,0,1-2.26.74,15.79,15.79,0,0,1-3.12.33A19.24,19.24,0,0,1,227.3,38.91Z"/></svg>