<svg xmlns="http://www.w3.org/2000/svg" xml:space="preserve" id="fistu" x="0" y="0" style="enable-background:new 0 0 1500 1500" version="1.1" viewBox="0 0 1500 1500"><style>.st0{fill:#fff}.st4{fill:#ffd232}.st6{fill:#6bbc67}.st7{opacity:.5}.st10{fill:#ea2316}.st12{fill:#02c1c3}.st15{fill:#c481e5}.st17{fill:#ff85c5}.st19{fill:#b9cc01}.st20{fill:#00a6bd}</style><path d="M0 0h1500v1500H0z" class="st0"/><path d="M1308.8 784.9c-6.1-8.7-15.4-14.7-25.9-16.5-1.9-.3-3.8-.5-5.6-.6 22.4-23.7 41.6-49.7 37.2-79.8-4.7-31.7-42.8-54.3-84.2-44.1 22.3-26.4 42.6-54.8 37.8-87.5l-.3-1.8c11.8-16 20.7-33.8 24.3-53.8 2.2-12.2-2.6-25-12.1-32.8-8.4-7-23.5-11.3-33.9-6-14 7.1-27.2 15.3-39.9 24-4-1.7-8-3.2-12.3-4.4 62.7-40.3 149-94.7 104.6-164.8-17.1-27.1-54-48.8-93.9-50.2-52-1.9-88.4 16.9-129.2 39.9 2.1-11.7 34.2-22.7 46.5-30.8 15.3-10.2 30.3-21.7 39.1-35.9 18.1-29.3 9.5-64.9-21.3-87.1-67.8-48.8-171.1-1.5-237.9 23.1 32.5-20 79.8-40.9 83.9-75.9 3.7-31.4-24.3-62.7-66.1-67.6-23.3-2.7-46.8-.5-69.1 5-10 2.5-19.8 5.5-29.3 9-5.7 2.1-11.4 4.3-17 6.7-8.8 3.6-7.2-.2-12.9-5.2-35-30.8-86.3-19.7-127.1-3.9-4.4 1.7-8.8 3.5-13.2 5.2-1.2-4.5-3.1-8.6-5.5-12.1-9.3-13.3-29.4-21.4-45-14.4-58.9 26.8-115.9 58-168.8 95.4-52.4 36.9-102 79.4-143.4 128.4-11.7 13.9-22.6 28-31.9 43.6-2.6 3.3-4.5 7-5.6 11 .9-3.9-.8 1.8-1.7 3.8-1.7 3.8-3.3 7.7-4.9 11.6-2.7 6.5-6.1 12.9-4.7 20.2.6 3.1 0 6.8.1 9.9 0 1.1.2 2.1.5 3.2-19.1 23.5-36.6 48.3-52.2 74.5-6.8 11.5-3.8 28.5 3.5 38.8 9.4 13.4 29.5 21.5 45.2 14.4 27.4-12.3 53-27.8 78.4-43.6-38.6 28.6-71.8 62.1-91.1 100.8-8.7 17.3-13.5 36.2-1.5 53.5 13.5 19.6 40.3 20.5 65.7 16.1-19.1 23-57.4 78.2-7.5 95.6-18 18.2-38.1 35.7-43.5 58.9-5.6 24.5 4.8 50.3 27.7 68 11.7 9.1 26.1 15.6 41.6 19.3-1.3.4-2.5.8-3.8 1.1-9 2.6-14.6 12.5-13.9 21.5.9 11.3 11.2 20.2 22.6 19.2 8.6-.8 17.1-2.1 25.6-3.9 5.6-1.2 11.2-2.4 16.7-3.9 2.1-.5 4.1-1.1 6.1-1.7-6.6 1.9-1.5.5 3.1-.9-.3.5-.7.9-1 1.4-4.3 5.2-7 11.1-8.2 17.7-1.8 9.9.5 20.3 6.3 28.6 9.1 13 28.8 21 44.1 14.1 10-4.5 19.9-9.3 29.7-14.2 12.3 4.5 26.7 5.1 39.5 1.1-4.8 5.5-9.4 11.1-13.9 16.9-15.5 20-28.8 41.8-34.6 66.7-3.2 13.5 3.3 28.8 13.8 37.4 14.2 11.8 32.8 11.2 48 1.9 49.6-30.2 99.8-59.7 150-89.1-17.2 17.5-33.9 35.5-49.7 54.3-10.4 12.4-13.4 30-8 45.1 6.5 18.1 27.3 34.4 47.5 30.7 15.3-2.8 30.1-6.5 44.6-12.2 10.4-4.1 20.4-9 30.3-14.2l-.6.9c-5.1 6.2-8.4 13.3-9.8 21.3-2.1 11.9.7 24.3 7.6 34.3 11.1 15.9 34.4 24.9 52.9 16.9 59.5-25.7 109.1-65.6 158-106.8-9.2 18-16.7 36.9-21.7 56.7-3.3 13.4 3.4 28.8 13.7 37.3 14.4 11.9 32.4 10.8 47.8 1.9 43.3-25.3 82.5-57.9 118.6-92.4 34.8-32.1 68.6-65.2 103.3-97.3 39.3-35.9 80.7-70.2 127.7-95.5 8.8-4.8 14.8-16.5 16.5-25.9 2-10.6-.4-21.5-6.4-30.1" style="fill:#a8e4fb"/><path d="M909.4 283.1c-2 4.2-6.3 7.4-10.1 10-8.8 5.9-19.8 7-30 5.6-5.7-.8-10.9-2.2-16.1-4.6-1.8-.8-3.5-1.8-5.1-2.9.4-.5.9-1 1.3-1.6-.6.5-1.1.9-1.7 1.3-2.1 1.5-4.3 3.1-6.6 4.5-.3.2-.5.3-.8.5-1.6 1.1-3.3 2.2-5.1 3-2.7 1.3-5.7 2.2-8.7 3-3.1.8-6.3 1.4-9.6 1.6-2.8.1-5.4-.2-8.1-.8-3.8-.6-7.5-1.6-10.7-3.6-2-1.2-3.9-2.6-5.4-4.4-1-1.2-1.7-2.9-3-3.9.3.7.7 1.4 1.1 2.1.7 1.2 1.5 2.3 2.5 3.3-2.3 1.8-5.3 3-7.9 4.2-6 2.7-12.6 4.3-19.2 3.8-6.8-.5-13.4-2.6-19.3-6.2-1.9-1.2-3.6-2.6-5.1-4.1-1.7-1.7-3.2-3.6-4.3-5.7.7 1.8 1.6 3.6 2.7 5.2-2.3 1.2-4.9 2-7.2 2.8-4.3 1.4-9.1 1.8-13.5.7-8.6-2-14.3-9.5-14.8-18.2-.5-8.1 4.5-16.7 11.9-20 4.3-1.9 9.1-2.3 13.7-1.5.7.1 1.3.3 1.9.4-.1.9-.2 1.8-.2 2.7.1 1 .1 1.9.3 2.9.3 1.3.8 2.5 1.3 3.7-.5-3.6-.2-7 .9-10.5.2-.6.4-1.2.7-1.8.3-.8.7-1.7 1.1-2.5 3-6.1 8.9-9.4 14.6-12.6 6-3.4 13-4.5 19.8-3.2 1.2.2 2.4.6 3.6 1-.5 2.8-.1 5.8 1.7 8.5-1.1-3.7-.9-7.9 1-11.1 1-2 2.4-3.9 4.2-5.5.4-.4.9-.7 1.4-1 0 0 0 .1.1.1h.1c.3-.2.7-.4 1-.6 0 0 0-.1-.1-.1 2-.9 4.3-1.5 6.3-1.9 1.5-.3 3.1-.5 4.6-.4.4 0 .7.1 1 .2h.3c-1.1-.4-2.2-.6-3.4-.6-1.7 0-3.4.2-5.1.4-1.5.3-3 .6-4.3 1.2-1.4-2.7-2.2-5.6-2.3-8.7-.2-3.7.2-7.5 1.8-10.9 1.5-3.2 3.8-6.3 6.4-8.7 5.5-4.9 12.4-7.2 19.7-6.4 6 .7 12.7 4.1 15.4 9.7-1.9.6-3.7 1.4-5.4 2.4-1.1.8-2.2 1.6-3.1 2.7 4-3.4 9.7-5.1 15-4.7 5.6-.2 11.1 1.3 15.7 4.7 5.1 3.7 10.1 8.8 12.2 14.9.6 1.8 1 3.7 1.2 5.5.4 2 .4 4.1.4 6v1.5c.3-1.6.4-3.2.4-4.9.2 0 .3 0 .4-.1 3.3-.4 6.5-.3 9.7.3 6.2 1.1 12.4 4.2 16.5 8.9 2 2.3 3.3 5.1 4.5 8 1.4 3.3 1.2 7.2.3 10.6-.1.4-.2.9-.4 1.3h-.1c-1.6.2-3.2.6-4.8 1.1-.7.2-1.3.4-1.7.9h.1s.1 0 .2-.1c1.2-.9 3.2-.9 4.6-1 1 0 2-.1 3.1-.1 2 .1 4.1.5 6 1.1 4.7 1.5 8.6 4.9 10.6 9.4 2 4.4 1.8 9.2-.1 13.2M396.8 778.7c-2 4.2-6.3 7.4-10.1 10-8.8 5.9-19.8 7-30 5.6-5.7-.8-10.9-2.2-16.1-4.6-1.8-.8-3.5-1.8-5.1-2.9.4-.5.9-1 1.3-1.6-.6.5-1.1.9-1.7 1.3-2.1 1.5-4.3 3.1-6.6 4.5-.3.2-.5.3-.8.5-1.6 1.1-3.3 2.2-5.1 3-2.7 1.3-5.7 2.2-8.7 3-3.1.8-6.3 1.4-9.6 1.6-2.8.1-5.4-.2-8.1-.8-3.8-.6-7.5-1.6-10.7-3.6-2-1.2-3.9-2.6-5.4-4.4-1-1.2-1.7-2.9-3-3.9.3.7.7 1.4 1.1 2.1.7 1.2 1.5 2.3 2.5 3.3-2.3 1.8-5.3 3-7.9 4.2-6 2.7-12.6 4.3-19.2 3.8-6.8-.5-13.4-2.6-19.3-6.2-1.9-1.2-3.6-2.6-5.1-4.1-1.7-1.7-3.2-3.6-4.3-5.7.7 1.8 1.6 3.6 2.7 5.2-2.3 1.2-4.9 2-7.2 2.8-4.3 1.4-9.1 1.8-13.5.7-8.6-2-14.3-9.5-14.8-18.2-.5-8.1 4.5-16.7 11.9-20 4.3-1.9 9.1-2.3 13.7-1.5.7.1 1.3.3 1.9.4-.1.9-.2 1.8-.2 2.7.1 1 .1 1.9.3 2.9.3 1.3.8 2.5 1.3 3.7-.5-3.6-.2-7 .9-10.5.2-.6.4-1.2.7-1.8.3-.8.7-1.7 1.1-2.5 3-6.1 8.9-9.4 14.6-12.6 6-3.4 13-4.5 19.8-3.2 1.2.2 2.4.6 3.6 1-.5 2.8-.1 5.8 1.7 8.5-1.1-3.7-.9-7.9 1-11.1 1-2 2.4-3.9 4.2-5.5.4-.4.9-.7 1.4-1 0 0 0 .1.1.1h.1c.3-.2.7-.4 1-.6 0 0 0-.1-.1-.1 2-.9 4.3-1.5 6.3-1.9 1.5-.3 3.1-.5 4.6-.4.4 0 .7.1 1 .2h.3c-1.1-.4-2.2-.6-3.4-.6-1.7 0-3.4.2-5.1.4-1.5.3-3 .6-4.3 1.2-1.4-2.7-2.2-5.6-2.3-8.7-.2-3.7.2-7.5 1.8-10.9 1.5-3.2 3.8-6.3 6.4-8.7 5.5-4.9 12.4-7.2 19.7-6.4 6 .7 12.7 4.1 15.4 9.7-1.9.6-3.7 1.4-5.4 2.4-1.1.8-2.2 1.6-3.1 2.7 4-3.4 9.7-5.1 15-4.7 5.6-.2 11.1 1.3 15.7 4.7 5.1 3.7 10.1 8.8 12.2 14.9.6 1.8 1 3.7 1.2 5.5.4 2 .4 4.1.4 6v1.5c.3-1.6.4-3.2.4-4.9.2 0 .3 0 .4-.1 3.3-.4 6.5-.3 9.7.3 6.2 1.1 12.4 4.2 16.5 8.9 2 2.3 3.3 5.1 4.5 8 1.4 3.3 1.2 7.2.3 10.6-.1.4-.2.9-.4 1.3h-.1c-1.6.2-3.2.6-4.8 1.1-.7.2-1.3.4-1.7.9h.1s.1 0 .2-.1c1.2-.9 3.2-1 4.6-1 1 0 2-.1 3.1-.1 2 .1 4.1.5 6 1.1 4.7 1.5 8.6 4.9 10.6 9.4 2 4.4 1.8 9.2-.1 13.2" class="st0"/><path d="M1037.2 372.2c2.2 1.3 4.7 1.9 7.3 2.1 1.5.2 2.9.3 4.4.3 1 0 2.2.1 3.4 0-1.4.4-2.8.6-4.2.7.1.4.2.7.3 1 .6 1.8 1.8 3.4 2.9 4.9 2.5 3.2 6 5.8 9.7 7.6 3.7 1.7 8.2 2.4 12.1 1.8.9-.1 1.7-.3 2.6-.6-.6-1.7-1-3.5-.9-5.4v-.1c.1 2.1 1.3 4.2 2.4 6 .7 1.2 1.6 2.3 2.5 3.4 1.7 2 3.8 3.8 6 5.3 5.6 3.9 12.5 6.2 19.3 6.9 6 .6 12.3-.3 17.7-3 2.3-1.2 4.6-3 6.5-5.1 1-.8 1.8-1.8 2.5-2.9 1.3-2.2 1.7-4.7 2.1-7.2.2 3-.6 5.9-2.1 8.6 7.6 4.1 16.9 5 25.2 2.5 4.8-1.5 8.7-4.1 10.5-9 .5-1.2.7-2.4.7-3.7.5-1.8.4-3.6-.5-5.4-1.2-2.2-3.1-3.3-5.1-4.3 2-.1 3.8 1.6 5 3.1.4.5.8 1.1 1.1 1.7.9-.6 1.8-1.3 2.5-2.1 1.9-1.3 3.3-3.3 4.3-5.3.8-1.4 1.3-2.9 1.8-4.5.1-.4.3-.9.4-1.3-.1 2.7-.7 5.4-1.7 8 3.6.6 7.3.7 10.8.1 5.5-1.1 10-5.6 9.8-11.4-.3-6.7-6.3-12.1-12.8-12.7-3.3-.3-6.6-.1-9.9.7-.5.1-1 .3-1.5.4 1 1 1.8 2.1 2.5 3.3l.6 1.5c-1.3-2.3-3.2-4.1-5.4-5.5-4-3.6-9.7-5.5-14.9-5.5-3.5 0-7.1 1.1-10.3 2.4.2 1.5.1 3-.3 4.4.2-2.5-.4-5-1.8-7.1-.2-.5-.5-1-.8-1.5-2.5-4.5-6.5-8.3-11.2-10.5-5.1-2.5-10.9-2.5-16.2-.7-1 .3-2 .7-2.9 1.1-.2.1-.3.1-.5.2h-.1c-.2.1-.5.2-.7.3-.9.4-1.9.9-2.8 1.5.8-.9 1.8-1.7 2.8-2.3.1-.1.3-.2.4-.3-.5-.9-1-1.8-1.6-2.6-2.3-3.5-5.7-5.8-9.8-6.8-2-.5-4.1-.8-6.1-.6-2 .2-3.6 1.1-5.3 2-2.9 1.6-4.5 4.3-5.4 7.3-.2.4-.3.8-.5 1.1-.5 1-.8 2-1 3.1-.1-.1-.2-.2-.2-.4 0-.5.1-1 .1-1.5-1-.5-2-.9-2.9-1.3-4.3-1.6-9.1-1.3-13.4 0-4 1.2-8 3.6-10.1 7.4-.9 1.6-1.5 3.3-1.7 5 2.1.6 4.5 1.8 5.7 3.6-2.7-2.2-6.1-3.3-9.5-3.1-2.4-.1-4.9.2-7.1.7-5.5 1.2-10.7 3.6-12.4 9.4-1.8 6 2.8 11.5 7.7 14.3m-94.1 586.4c2.2 1.3 4.8 1.9 7.4 2.1 1.4.2 2.9.3 4.4.3 1 0 2.2.1 3.4 0-1.4.4-2.8.6-4.2.7.1.4.2.7.3 1 .6 1.8 1.8 3.4 2.9 4.9 2.5 3.2 6 5.8 9.7 7.5 3.6 1.7 8.2 2.3 12.1 1.8.9-.1 1.7-.3 2.6-.6-.6-1.7-1-3.5-1-5.4v-.1c.1 2.1 1.3 4.2 2.4 6 .7 1.2 1.6 2.3 2.5 3.4 1.7 2 3.8 3.8 6.1 5.3 5.6 3.9 12.5 6.2 19.2 6.9 6 .6 12.3-.3 17.8-3 2.3-1.2 4.6-2.9 6.5-5.1 1-.8 1.8-1.8 2.5-2.9 1.3-2.2 1.7-4.7 2.1-7.2.2 3-.6 5.9-2.1 8.6 7.6 4.1 16.9 5 25.2 2.5 4.8-1.5 8.7-4.2 10.5-9 .5-1.2.7-2.5.7-3.7.4-1.8.4-3.6-.6-5.4-1.2-2.2-3.1-3.3-5.1-4.3 2-.1 3.8 1.6 5 3.1.4.5.8 1.1 1.1 1.7.9-.6 1.8-1.3 2.5-2.1 1.9-1.3 3.3-3.3 4.3-5.3.8-1.4 1.3-2.9 1.8-4.5.1-.4.3-.9.4-1.3-.1 2.7-.7 5.4-1.7 8 3.6.6 7.2.7 10.8.1 5.5-1.1 10-5.6 9.8-11.4-.3-6.7-6.3-12.1-12.8-12.7-3.3-.3-6.6-.1-9.9.7-.5.1-1 .3-1.5.4 1 1 1.8 2.1 2.5 3.3l.6 1.5c-1.3-2.3-3.2-4.1-5.4-5.5-4-3.6-9.7-5.5-14.9-5.5-3.5 0-7.1 1.1-10.3 2.4.2 1.5.1 3-.3 4.4.2-2.5-.5-5.1-1.8-7.1-.2-.5-.5-1-.8-1.5-2.5-4.5-6.5-8.3-11.1-10.5-5.1-2.5-10.9-2.5-16.2-.7-1 .3-2 .7-2.9 1.1-.2.1-.3.1-.5.2 0 0-.1 0-.1.1-.2.1-.5.2-.7.3-.9.5-1.9.9-2.8 1.5.8-.9 1.8-1.6 2.8-2.3.1-.1.3-.2.4-.3-.5-.9-1-1.8-1.6-2.6-2.3-3.5-5.7-5.8-9.8-6.8-2-.5-4.1-.8-6.1-.6s-3.6 1.1-5.3 2.1c-2.9 1.6-4.5 4.3-5.4 7.3-.2.4-.3.8-.5 1.2-.5 1-.7 2-1 3.1-.1-.1-.2-.2-.2-.4 0-.5.1-1 .1-1.5-1-.5-2-.9-2.9-1.3-4.3-1.6-9.1-1.3-13.4 0-4 1.2-8 3.7-10.1 7.4-.9 1.6-1.5 3.3-1.7 5 2.1.6 4.5 1.8 5.7 3.5-2.7-2.1-6.1-3.3-9.5-3.1-2.4-.1-4.9.2-7.1.7-5.5 1.2-10.7 3.6-12.4 9.4-1.9 6 2.7 11.4 7.6 14.2M485.8 131.2c2.2 1.3 4.8 1.9 7.4 2.1 1.4.2 2.9.3 4.4.3 1 0 2.2.1 3.4 0-1.4.4-2.8.6-4.2.7.1.4.2.7.3 1 .6 1.8 1.8 3.4 2.9 4.9 2.5 3.2 6 5.8 9.7 7.5 3.6 1.7 8.2 2.3 12.1 1.8.9-.1 1.7-.3 2.6-.6-.6-1.7-1-3.5-1-5.4v-.1c.1 2.1 1.3 4.2 2.4 6 .7 1.2 1.6 2.3 2.5 3.4 1.7 2 3.8 3.8 6.1 5.3 5.6 3.9 12.5 6.2 19.2 6.9 6 .6 12.3-.3 17.8-3 2.3-1.2 4.6-2.9 6.5-5.1 1-.8 1.8-1.8 2.5-2.9 1.3-2.2 1.7-4.7 2.1-7.2.2 3-.6 5.9-2.1 8.6 7.6 4.1 16.9 5 25.2 2.5 4.8-1.5 8.7-4.2 10.5-9 .5-1.2.7-2.5.7-3.7.4-1.8.4-3.6-.6-5.4-1.2-2.2-3.1-3.3-5.1-4.3 2-.1 3.8 1.6 5 3.1.4.5.8 1.1 1.1 1.7.9-.6 1.8-1.3 2.5-2.1 1.9-1.3 3.3-3.3 4.3-5.3.8-1.4 1.3-2.9 1.8-4.5.1-.4.3-.9.4-1.3-.1 2.7-.7 5.4-1.7 8 3.6.6 7.2.7 10.8.1 5.5-1.1 10-5.6 9.8-11.4-.3-6.7-6.3-12.1-12.8-12.7-3.3-.3-6.6-.1-9.9.7-.5.1-1 .3-1.5.4 1 1 1.8 2.1 2.5 3.3l.6 1.5c-1.3-2.3-3.2-4.1-5.4-5.5-4-3.6-9.7-5.5-14.9-5.5-3.5 0-7.1 1.1-10.3 2.4.2 1.5.1 3-.3 4.4.2-2.5-.5-5.1-1.8-7.1-.2-.5-.5-1-.8-1.5-2.5-4.5-6.5-8.3-11.1-10.5-5.1-2.5-10.9-2.5-16.2-.7-1 .3-2 .7-2.9 1.1-.2.1-.3.1-.5.2 0 0-.1 0-.1.1-.2.1-.5.2-.7.3-.9.5-1.9.9-2.8 1.5.8-.9 1.8-1.6 2.8-2.3.1-.1.3-.2.4-.3-.5-.9-1-1.8-1.6-2.6-2.3-3.5-5.7-5.8-9.8-6.8-2-.5-4.1-.8-6.1-.6-2 .2-3.6 1.1-5.3 2.1-2.9 1.6-4.5 4.3-5.4 7.3-.2.4-.3.8-.5 1.2-.5 1-.7 2-1 3.1-.1-.1-.2-.2-.2-.4 0-.5.1-1 .1-1.5-1-.5-2-.9-2.9-1.3-4.3-1.6-9.1-1.3-13.4 0-4 1.2-8 3.7-10.1 7.4-.9 1.6-1.5 3.3-1.7 5 2.1.6 4.5 1.8 5.7 3.5-2.7-2.1-6.1-3.3-9.5-3.1-2.4-.1-4.9.2-7.1.7-5.5 1.2-10.7 3.6-12.4 9.4-1.9 5.9 2.6 11.4 7.6 14.2" style="fill:#fff;opacity:.5;enable-background:new"/><path d="M1081.5 569.5c8.7-46.2 71.1-142 71.8-143l-1.6-1.1c-.6 1-63.3 97.1-72.1 143.7zm-3.4-.5c9.7-59.5 41.7-211.3 42.1-212.8l-1.9-.4c-.3 1.5-32.4 153.4-42.1 212.9zm-7.3 8 1.9-.6c-10.6-31.7.4-181.1.5-182.6l-2-.1c-.4 6.1-11.1 151.1-.4 183.3"/><path d="m1069.7 382.7-1.4 17.8s8.7-.9 13.3-4c-.8-7-7.1-14.7-7.1-14.7z" style="fill:#f9b338"/><path d="M1004.7 178.6c-8 4.3-15.3 10.1-21.3 17.2-5.6 6.7-11.5 15.2-14.7 23.3-2.1 5.4-3.7 11.4-4.4 17.2-1.6 11.9-.6 24.5 1.4 36.3 3.1 18.7 10.8 37.6 20.7 53.8 22.5 36.9 58.9 58.9 83.7 58.2 19.4-2.8 76.7-65.5 50.3-152.4-6.7-22-19.8-46.2-41.6-56.2-23.4-10.7-51.7-9.5-74.1 2.6" class="st4"/><path d="M1000.3 211.3s-27.1 41.1-10.3 103.1c-17.6-28.9-25.4-75.2-.5-110.1 3.9 3 10.8 7 10.8 7m-2.7-15.5 8.5 8.7 10.5-7.4-6.9-7.3c.1 0-8.7 3.1-12.1 6" class="st0"/><path d="M1050.5 168.9c9.7.7 19.3 3 28.2 7.1 21.8 10 34.9 34.2 41.6 56.2 15.8 51.9 1.7 95.2-16.3 122.2-88.3-76.7-64.9-158.4-53.5-185.5" class="st4"/><path d="m1161 417.5-3.6 17.1s-7.9-3.2-11.4-7.5c2.6-6.3 10.8-11.9 10.8-11.9z" style="fill:#00ab6c"/><path d="M1278.8 243.9c6.3 6.3 11.5 13.7 15.2 22.1 3.4 7.8 6.6 17.5 7.4 26 .5 5.7.3 11.7-.6 17.4-1.8 11.6-6.3 23.2-11.4 33.7-8.1 16.7-20.7 32.3-34.4 44.7-31.4 28.4-71.7 38.9-94.9 31.4-17.4-8-53.8-82.9-4.8-157.2 12.4-18.8 31.5-37.9 54.7-41.2 24.9-3.5 51.2 5.5 68.8 23.1" class="st6"/><path d="M1273.8 275.8s14 46.2-19.1 99.7c24.6-22.3 44.8-63.5 31.1-103.3-4.4 1.8-12 3.6-12 3.6m6.8-13.7-10.3 5.8-7.8-9.9 8.5-4.9c-.1-.1 7.3 5.3 9.6 9" class="st0"/><path d="M1131.5 357c-3.1-27.6 1.6-61.3 23.8-94.9 12.4-18.8 31.5-37.9 54.7-41.2 7.2-1.1 14.5-1 21.6 0-3 31.6-18.5 111.7-100.1 136.1" class="st7" style="fill:#90bd82"/><path d="m1121.2 344 2.8 17.6s-8.7-.2-13.5-3c.2-7 5.9-15.3 5.9-15.3z" style="fill:#c7342b"/><path d="M1170.2 135.5c8.3 3.7 16 8.9 22.5 15.5 6.1 6.2 12.7 14.2 16.5 22.1 2.5 5.3 4.5 11 5.7 16.7 2.5 11.7 2.5 24.4 1.4 36.3-1.6 18.9-7.9 38.3-16.5 55.2-19.6 38.5-54.2 63.3-78.9 64.6-19.6-1.3-81.5-59.4-62-148.1 4.9-22.4 16.2-47.6 37.1-59.3 22.6-12.3 50.9-13.3 74.2-3" class="st10"/><path d="M1177 167.7s30.2 38.9 18.3 102c15.3-30.2 19.4-76.9-8.1-109.8-3.6 3.3-10.2 7.8-10.2 7.8m1.5-15.5-7.8 9.3-11.1-6.6 6.3-7.8s9 2.4 12.6 5.1" class="st0"/><path d="M418.5 546c-8.7-46.2-71.1-142-71.8-143l1.6-1.1c.6 1 63.3 97.1 72.1 143.7zm3.4-.5c-9.7-59.5-41.7-211.3-42.1-212.8l1.9-.4c.3 1.5 32.4 153.4 42.1 212.9zm7.3 8-1.9-.6c10.6-31.7-.4-181.1-.5-182.6l2-.1c.4 6.1 11.1 151.2.4 183.3"/><path d="m430.3 359.3 1.4 17.8s-8.7-.9-13.3-4c.8-7 7.1-14.7 7.1-14.7z" style="fill:#009c9e"/><path d="M495.3 155.2c8 4.3 15.3 10.1 21.3 17.2 5.6 6.7 11.5 15.2 14.7 23.3 2.1 5.4 3.7 11.4 4.4 17.2 1.6 11.9.6 24.5-1.4 36.3-3.1 18.7-10.8 37.6-20.7 53.8-22.5 36.9-58.9 58.9-83.7 58.2-19.4-2.8-76.7-65.5-50.3-152.4 6.7-22 19.8-46.2 41.6-56.2 23.4-10.7 51.7-9.6 74.1 2.6" class="st12"/><path d="M499.7 187.8s27.1 41.1 10.3 103.1c17.6-28.9 25.4-75.2.5-110.1-3.9 3.1-10.8 7-10.8 7m2.7-15.4-8.5 8.7-10.5-7.4 6.9-7.3c-.1 0 8.7 3 12.1 6" class="st0"/><path d="M449.5 145.5c-9.7.7-19.3 3-28.2 7.1-21.8 10-34.9 34.2-41.6 56.2C363.9 260.7 378 304 396 331c88.3-76.8 64.9-158.4 53.5-185.5" style="opacity:.5;fill:#02c1c3;enable-background:new"/><path d="m339 394.1 3.6 17.1s7.9-3.2 11.4-7.5c-2.6-6.3-10.8-11.9-10.8-11.9z" style="fill:#9f69b9"/><path d="M221.2 220.5c-6.3 6.3-11.5 13.7-15.2 22.1-3.4 7.8-6.6 17.5-7.4 26-.5 5.7-.3 11.7.6 17.4 1.8 11.6 6.3 23.2 11.4 33.7 8.1 16.7 20.7 32.3 34.4 44.7 31.4 28.4 71.7 38.9 94.9 31.4 17.4-8 53.8-82.9 4.8-157.2-12.4-18.8-31.5-37.9-54.7-41.2-24.9-3.6-51.2 5.4-68.8 23.1" class="st15"/><path d="M226.2 252.4s-14 46.2 19.1 99.7c-24.6-22.3-44.8-63.5-31.1-103.3 4.4 1.7 12 3.6 12 3.6m-6.8-13.8 10.3 5.8 7.8-9.9-8.5-4.9c.1 0-7.3 5.3-9.6 9" class="st0"/><g class="st7"><path d="M368.5 333.5c3.1-27.6-1.6-61.3-23.8-94.9-12.4-18.8-31.5-37.9-54.7-41.2-7.2-1.1-14.5-1-21.6 0 3 31.7 18.5 111.7 100.1 136.1" class="st15"/></g><path d="m378.8 320.6-2.8 17.6s8.7-.2 13.5-3c-.2-7-5.9-15.3-5.9-15.3z" style="fill:#ce6c9f"/><path d="M329.8 112.1c-8.3 3.7-16 8.9-22.5 15.5-6.1 6.2-12.7 14.2-16.5 22.1-2.5 5.3-4.5 11-5.7 16.7-2.5 11.7-2.5 24.4-1.4 36.3 1.6 18.9 7.9 38.3 16.5 55.2 19.6 38.5 54.2 63.3 78.9 64.6 19.6-1.3 81.5-59.4 62-148.1-4.9-22.4-16.2-47.6-37.1-59.3-22.5-12.4-50.9-13.4-74.2-3" class="st17"/><path d="M323 144.3s-30.2 38.9-18.3 102c-15.3-30.2-19.4-76.9 8.1-109.8 3.6 3.3 10.2 7.8 10.2 7.8m-1.5-15.6 7.8 9.3 11.1-6.6-6.3-7.8s-9 2.4-12.6 5.1" class="st0"/><path d="M1168.6 785.3c-2.5-2.8-5.3-5.2-8.4-7 1.1-2.4 1.6-5.1 1.4-7.9-2.3-29.8 1.8-61.3 12.1-93.5 1.5-4.6.8-9.6-1.8-13.6s-6.9-6.7-11.7-7.2l-24.9-2.8c-.6-.1-1.2-.1-1.8-.1-7.4 0-13.9 5.1-15.6 12.4-3.7 15.9-5.9 33-6.7 51.3l-4.9-2.4c-2.2-1.1-4.6-1.6-7-1.6-2.2 0-4.4.5-6.5 1.4-4.3 1.9-7.6 5.7-8.9 10.2-3.9 13.5-7.9 24.9-12.1 34.2-6.7-6.8-12.5-15.2-17.4-25.1-2.5-4.9-7.3-8.2-12.7-8.8-.5-.1-1.1-.1-1.6-.1-4.9 0-9.6 2.2-12.6 6.1l-1.7 2.2c-.7-2.5-1.5-5.1-2.2-7.6-10.6-34.1-28-51.5-51.7-51.5-1.1 0-2.3 0-3.4.1-15.6 1.2-28.1 14.6-39.4 44.3-1-2.5-2.2-4.9-3.4-7.3-4.9-9.4-12-16.8-21.3-22.3l34.9-17.6c7.6-3.8 10.9-12.9 7.5-20.7-8.1-18.7-13.4-35.2-15.6-49.3 17.6-.2 36.8-6.1 57.1-17.5 10.7-6 19.4-13.6 26.3-22.7 13.3 17.1 29.6 32.2 48.9 44.9-11.6 15.4-30.9 32.9-57.9 52.4-3.5 2.5-5.9 6.4-6.5 10.7s.5 8.6 3.1 12.1l24.6 32.2c3.2 4.1 7.9 6.3 12.7 6.3 3.2 0 6.5-1 9.4-3 61.3-44.2 103.5-112.5 125.4-203.1 1.8-7.3-1.8-14.9-8.6-18.2l-26.4-12.8c-2.2-1.1-4.6-1.6-7-1.6-2.2 0-4.4.5-6.5 1.4-4.3 1.9-7.6 5.7-8.9 10.2-7.4 25.5-15.2 46.3-23.3 62.2-14-11.8-26-27.7-35.7-47.2-2.5-4.9-7.3-8.2-12.7-8.8-.5-.1-1.1-.1-1.6-.1-3.7 0-7.3 1.3-10.1 3.6.1-2.8.2-5.7.1-8.7-.4-25.6-8.4-69.6-58-77.2-.6-.1-1.3-.2-2-.2-2.2-.1-4.3-.1-6.4-.1-52 0-78.3 19.6-91.2 43.1-6.9-19.5-21.7-38.1-52.3-42.8-.6-.1-1.3-.2-2-.2-2.2-.1-4.3-.1-6.4-.1-75.4 0-96.9 41.2-101.6 75.8-.6 4.3-1 8.8-1.4 13.3-1.1-3.7-2.2-7.5-3.3-11.2-14.7-47.4-38.2-71.4-69.8-71.4-1.5 0-3 .1-4.5.2-20.4 1.5-44.2 18.9-70.1 120.6 1.5-20.2 4-42.3 7.4-66.2.6-4.4-.6-8.9-3.4-12.4s-7-5.6-11.5-5.9l-36.3-2.2h-1c-8.1 0-15.1 6.2-15.9 14.4-2.3 21.7-3.9 45.1-4.8 69.6-3.8.5-7.6.7-11.5.7-10 0-20.5-1.5-31.3-4.6.6-30.9.5-38.4.2-41.4-.4-4.8-2.9-9.2-6.9-11.9-2.7-1.8-5.9-2.8-9-2.8-1.5 0-3.1.2-4.6.7l-35.8 10.6c-7.5 2.2-12.3 9.5-11.3 17.3 5.3 43.9 5.4 87.3.3 129.2-1 8.1 4.3 15.7 12.3 17.6l21.2 5c-5.8 2.2-11.3 5.6-16.5 10-10.3 8.9-20.9 28.6-20.9 107.2.3 23.4.9 85.6 39.3 87.1 1.3.1 2.6.1 4 .1 16.6 0 34.6-4 53.5-12 2.5-1 4.7-2.1 6.9-3.3 1.7 2.3 4 4.2 6.8 5.3l23.8 9.5c1.9.8 3.9 1.1 6 1.1 2.2 0 4.3-.4 6.3-1.3 3.9-1.7 7-4.8 8.6-8.8 1.3-3.1 2.4-6.3 3.5-9.5.3 1.6.6 3.2.9 4.9 1 4.9 4.2 9.1 8.7 11.4 2.2 1.1 4.7 1.6 7.1 1.6 2.5 0 4.9-.6 7.2-1.7l24.5-12.3c7.6-3.8 10.9-12.9 7.5-20.7-2.1-4.8-3.9-9.3-5.3-13.6 12.5 7.4 23.8 15.2 33.9 23.5 2.9 2.4 6.5 3.7 10.2 3.7.9 0 1.8-.1 2.7-.2 4.6-.8 8.6-3.5 11-7.5l12.3-20.1c3.9-6.3 2.9-14.5-2.3-19.7-5.4-5.4-12.8-11-22.3-16.9 9.7-8.1 15.5-17 18.7-26h.7c2.2 0 4.4-.4 6.4-1.4.5-.2 2.5-.9 9.2-2.3-1.4 30.4-.7 59.6 2.1 87.2.5 4.9 3.2 9.3 7.4 11.9 2.6 1.6 5.6 2.5 8.6 2.5 1.8 0 3.6-.3 5.3-.9l26.2-9.3c.2-.1.3-.1.4-.2h.1l19.4 4.5c1.2.3 2.4.4 3.7.4 3.1 0 6.1-.9 8.7-2.6 3.7-2.4 6.2-6.1 7-10.4 1.7-9 2.9-17.6 3.6-25.8 6.2 1 12.5 1.5 18.8 1.5h.4c.6 8.9 1 14.9 1.2 18.1.3 4.6 2.6 8.9 6.3 11.6 2.8 2.1 6.2 3.2 9.6 3.2 1.1 0 2.2-.1 3.3-.3l21.6-4.5c2.5-.5 4.7-1.7 6.6-3.1 4.9 6 12 10.4 22.3 10.8h2.1c13.8 0 28.5-5 45-15.3 1.1-.7 2.2-1.4 3.2-2.2 1.7 2.4 4.1 4.3 7 5.4l16.1 6.3c1.9.7 3.9 1.1 5.9 1.1 2.7 0 5.3-.7 7.7-2 4.2-2.3 7.1-6.4 8-11.1.5-2.7 1.2-5.5 1.9-8.5 6.8 1.4 13.6 2.2 20.1 2.2 4.6 0 9-.3 13.5-1 .8 4.4 1.5 9.1 2.2 14 .7 5.1 3.7 9.5 8.2 12 2.1 1.1 4.4 1.8 6.7 1.9.2 3.1 1.3 6 3.2 8.5l16.5 21.5c3.2 4.1 7.9 6.3 12.8 6.3 3.3 0 6.5-1 9.4-3 23.9-17.2 43.5-39.7 58.8-67.3.8 7.1 3.9 13.8 9.2 20 6.8 7.9 16.1 12 27 12 10.8 0 20.1-4.1 26.9-12 6.3-7.3 9.5-15.3 9.5-23.7-.4-8.2-3.7-16.2-10-23.4M928.9 495.7c.8-7.6 15.2-11.1 23.7-12.4 2.3-.4 4.5-.6 6.3-.6 5.5 0 10.7 0 11.3 15.3.6 17-7.2 28.1-25.6 36.1-8.3 3.6-13.3 4.7-16 5-1.2-16.2-1.1-30.8.3-43.4m-152 0c.8-7.6 15.2-11.1 23.7-12.4 2.3-.4 4.5-.6 6.3-.6 5.5 0 10.7 0 11.3 15.3.6 17-7.2 28.2-25.6 36.1-8.3 3.6-13.3 4.7-16 5-1.1-16.2-1-30.8.3-43.4m-134.4 5.7c6.8 12.5 12.2 30.5 15.9 53.7-8.7 1.5-17.5 2.2-26.4 2.2-2 0-4.1 0-6.1-.1 5.3-23.8 10.9-42.5 16.6-55.8M440.2 713.6c.1-.4.2-.7.3-1 .2 0 .4.1.6.1 2.8.7 5.1 7.3 5.8 16.8.3 3.7-.7 4.9-1.2 5.5-.7.8-2.8 2.7-8.3 4.4.3-13.4 1.6-21.3 2.8-25.8m16 89.6c-7.4 2.1-11.9 2.5-14.2 2.5h-.3c-.7-2.3-1.6-6.4-2.3-13.6 8.2 0 18.7 1.3 22 7.2.4.6.6 1.2.8 1.6-1.1.6-3 1.5-6 2.3m45.3-62.8c1.3 8.8 2 17.2 2 25.4-2.9-2.8-6.1-5.4-9.7-8 3.3-7.1 5.4-14.4 6.5-21.8.4.3.7.6 1.1.9-.1 1.2-.1 2.3.1 3.5m89.2 9.6c-1.2.6-2.3 1-3.2 1.4-.4-8.2-.2-15.8.5-22.5.6-.6 3.4-2.5 11.4-3.8 1.3-.2 2.4-.3 3.4-.3.6 0 1.1 0 1.4.1.3.7.7 2.2.8 5 .2 6.8-1.4 14-14.3 20.1m61.9-54.4c-10.4-18.5-27.1-24.2-38.1-25.9-.6-.1-1.3-.2-2-.2-1.5 0-3-.1-4.4-.1-27.6 0-44.9 8.1-55.8 18.7-1-1.4-2.1-2.9-3.3-4.3-6.8-7.7-16.1-11.8-26.8-11.8-10.8 0-20.1 4.1-26.9 11.9-1.5 1.8-2.9 3.6-4.1 5.4-8.3-16-20-26.1-35.2-30-3.5-.9-7-1.5-10.4-1.8 1.9-2.1 3.3-4.7 3.8-7.6 3.2-16.5 5.2-32.1 5.9-46.6 11.7 2.5 23.5 3.8 35.4 3.8 2.6 0 5.3-.1 8-.2 1.1 17.4 1.9 29 2.3 34.6.3 4.6 2.6 8.9 6.3 11.6 2.8 2.1 6.2 3.2 9.7 3.2 1.1 0 2.2-.1 3.3-.3l32.3-6.8c3.1-.7 5.9-2.2 8-4.3l19.8 7.8c1.9.7 3.9 1.1 5.9 1.1 2.7 0 5.3-.7 7.7-2 4.2-2.3 7.1-6.4 8-11.1 1.2-6.4 2.9-13.4 5.1-20.8 12.2 3.2 24.2 4.8 35.7 4.8 9 0 17.8-1 26.5-2.9 1.9 9 3.5 18.8 4.9 29.2.7 5.1 3.7 9.5 8.2 12 2.4 1.3 5 2 7.7 2 2.3 0 4.7-.5 6.8-1.5l25.6-12c1.5 8.7 3.1 17.6 4.9 26.7.8 4.3 3.4 8.1 7.1 10.4-9-1.7-18.2-2.6-27.5-2.6-17.6.1-35.9 3.3-54.4 9.6m205.7-18c-17.1 0-29.5 7.2-35.9 20l-16.4-1h-1c-8.1 0-15.1 6.2-15.9 14.4-1.4 13.3-2.4 27.4-3.1 42.2-.8 0-1.7.1-2.6.1-5 0-10.2-.6-15.5-1.9.4-20 .2-22.6 0-24-.4-4.8-2.9-9.2-6.9-11.9-.8-.5-1.6-1-2.5-1.4l.6-2.2c2.4-8.5-2.4-17.3-10.9-19.8-1-.3-2.1-.6-3.1-.9 1.8-.2 3.6-.7 5.3-1.6l36.7-18.5c7.6-3.8 10.9-12.9 7.5-20.7-8.1-18.7-13.4-35.2-15.6-49.3 17.6-.2 36.8-6.1 57.2-17.5 11.2-6.3 20.3-14.3 27.4-24.1 1.8 33.8 7.1 73.1 15.9 118.8.1.5.2 1 .4 1.5-5.9-1.2-12.2-1.9-19-2.2-.3.1-2.6 0-2.6 0M877 779.4c-.8-15-2.7-29.2-5.5-42.2.4 0 .8.1 1.2.2 4.5.6 10.7 1.5 10.9 18.5.2 14.8-3.6 20.8-6.6 23.5m92.7-15.4c1.6-6.5 3.1-12.3 4.7-17.4 1.6 4.9 2.9 10.5 4.1 16.8-2.9.3-5.8.5-8.8.6m71.3 43.7c-.4-3.2-.9-6.3-1.3-9.4 1.9 1.5 3.9 3 5.9 4.5-1.4 1.5-2.9 3.2-4.6 4.9" style="fill:#72c4db"/><path d="M1162.6 767.5c-2.5-2.8-5.3-5.2-8.4-7 1.1-2.4 1.6-5.1 1.4-7.9-2.3-29.8 1.8-61.3 12.1-93.5 1.5-4.6.8-9.6-1.8-13.6s-6.9-6.7-11.7-7.2l-24.9-2.8c-.6-.1-1.2-.1-1.8-.1-7.4 0-13.9 5.1-15.6 12.4-3.7 15.9-5.9 33-6.7 51.3l-4.9-2.4c-2.2-1.1-4.6-1.6-7-1.6-2.2 0-4.4.5-6.5 1.4-4.3 1.9-7.6 5.7-8.9 10.2-3.9 13.5-7.9 24.9-12.1 34.2-6.7-6.8-12.5-15.2-17.4-25.1-2.5-4.9-7.3-8.2-12.7-8.8-.5-.1-1.1-.1-1.6-.1-4.9 0-9.6 2.2-12.6 6.1l-1.7 2.2c-.7-2.5-1.5-5.1-2.2-7.6-10.6-34.1-28-51.5-51.7-51.5-1.1 0-2.3 0-3.4.1-15.6 1.2-28.1 14.6-39.4 44.3-1-2.5-2.2-4.9-3.4-7.3-4.9-9.4-12-16.8-21.3-22.3l34.9-17.6c7.6-3.8 10.9-12.9 7.5-20.7-8.1-18.7-13.4-35.2-15.6-49.3 17.6-.2 36.8-6.1 57.1-17.5 10.7-6 19.4-13.6 26.3-22.7 13.3 17.1 29.6 32.2 48.9 44.9-11.6 15.4-30.9 32.9-57.9 52.4-3.5 2.5-5.9 6.4-6.5 10.7s.5 8.6 3.1 12.1l24.6 32.2c3.2 4.1 7.9 6.3 12.7 6.3 3.2 0 6.5-1 9.4-3 61.3-44.2 103.5-112.5 125.4-203.1 1.8-7.3-1.8-14.9-8.6-18.2l-26.4-12.8c-2.2-1.1-4.6-1.6-7-1.6-2.2 0-4.4.5-6.5 1.4-4.3 1.9-7.6 5.7-8.9 10.2-7.4 25.5-15.2 46.3-23.3 62.2-14-11.9-26-27.7-35.7-47.2-2.5-4.9-7.3-8.2-12.7-8.8-.5-.1-1.1-.1-1.6-.1-3.7 0-7.3 1.3-10.1 3.6.1-2.8.2-5.7.1-8.7-.4-25.6-8.4-69.6-58-77.2-.6-.1-1.3-.2-2-.2-2.2-.1-4.3-.1-6.4-.1-52 0-78.3 19.6-91.2 43.1-6.9-19.5-21.7-38.1-52.3-42.8-.6-.1-1.3-.2-2-.2-2.2-.1-4.3-.1-6.4-.1-75.4 0-96.9 41.2-101.6 75.8-.6 4.3-1 8.8-1.4 13.3-1.1-3.7-2.2-7.5-3.3-11.2-14.7-47.4-38.2-71.4-69.8-71.4-1.5 0-3 .1-4.5.2-20.4 1.5-44.2 18.9-70.1 120.6 1.5-20.2 4-42.3 7.4-66.2.6-4.4-.6-8.9-3.4-12.4s-7-5.6-11.5-5.9l-36.3-2.2h-1c-8.1 0-15.1 6.2-15.9 14.4-2.3 21.7-3.9 45.1-4.8 69.6-3.8.5-7.6.7-11.5.7-10 0-20.5-1.5-31.3-4.6.6-30.9.4-38.4.2-41.4-.4-4.8-2.9-9.2-6.9-11.9-2.7-1.8-5.9-2.8-9.1-2.8-1.5 0-3.1.2-4.6.7L394 474c-7.5 2.2-12.3 9.5-11.4 17.3 5.3 43.9 5.4 87.3.3 129.2-1 8.1 4.3 15.7 12.3 17.6l21.2 5c-5.8 2.2-11.3 5.6-16.5 10-10.3 8.9-20.9 28.6-20.9 107.2.3 23.4.9 85.6 39.3 87.1 1.3.1 2.6.1 4 .1 16.6 0 34.6-4 53.5-12 2.5-1 4.7-2.1 6.9-3.3 1.7 2.3 4 4.2 6.8 5.3l23.8 9.5c1.9.8 3.9 1.1 6 1.1 2.2 0 4.3-.4 6.3-1.3 3.9-1.7 7-4.8 8.6-8.8 1.3-3.1 2.4-6.3 3.5-9.5.3 1.6.6 3.2.9 4.9 1 4.9 4.2 9.1 8.7 11.4 2.2 1.1 4.7 1.6 7.1 1.6 2.5 0 4.9-.6 7.2-1.7l24.5-12.3c7.6-3.8 10.9-12.9 7.5-20.7-2.1-4.8-3.8-9.3-5.3-13.6 12.5 7.4 23.8 15.2 33.9 23.5 2.9 2.4 6.5 3.7 10.2 3.7.9 0 1.8-.1 2.7-.2 4.6-.8 8.6-3.5 11-7.5l12.3-20.1c3.9-6.3 2.9-14.5-2.3-19.7-5.4-5.4-12.8-11-22.3-16.9 9.7-8.1 15.5-17 18.7-26h.7c2.2 0 4.4-.4 6.4-1.4.5-.2 2.5-.9 9.2-2.3-1.4 30.4-.7 59.6 2.1 87.2.5 4.9 3.2 9.3 7.4 11.9 2.6 1.6 5.6 2.5 8.6 2.5 1.8 0 3.6-.3 5.3-.9l26.2-9.3c.2-.1.3-.1.4-.2h.1l19.4 4.5c1.2.3 2.4.4 3.7.4 3.1 0 6.1-.9 8.7-2.6 3.7-2.4 6.2-6.1 7-10.4 1.7-9 2.9-17.6 3.6-25.8 6.2 1 12.5 1.5 18.8 1.5h.4c.6 8.9 1 14.9 1.2 18.1.3 4.6 2.6 8.9 6.3 11.6 2.8 2.1 6.2 3.2 9.6 3.2 1.1 0 2.2-.1 3.3-.3l21.6-4.5c2.5-.5 4.7-1.7 6.6-3.1 4.9 6 12 10.4 22.3 10.8h2.1c13.8 0 28.5-5 45-15.3 1.1-.7 2.2-1.4 3.2-2.2 1.7 2.4 4.1 4.3 7 5.4l16.1 6.3c1.9.7 3.9 1.1 5.9 1.1 2.7 0 5.3-.7 7.7-2 4.2-2.3 7.1-6.4 8-11.1.5-2.7 1.2-5.5 1.9-8.5 6.8 1.4 13.6 2.2 20.1 2.2 4.6 0 9-.3 13.5-1 .8 4.4 1.5 9.1 2.2 14 .7 5.1 3.7 9.5 8.2 12 2.1 1.1 4.4 1.8 6.7 1.9.2 3.1 1.3 6 3.2 8.5l16.5 21.5c3.2 4.1 7.9 6.3 12.8 6.3 3.3 0 6.5-1 9.4-3 23.9-17.2 43.5-39.7 58.8-67.3.8 7.1 3.9 13.8 9.2 20 6.8 7.9 16.1 12 27 12 10.8 0 20.1-4.1 26.9-12 6.3-7.3 9.5-15.3 9.5-23.7-.1-8.2-3.3-16.2-9.7-23.4M922.9 477.9c.8-7.6 15.2-11.1 23.7-12.4 2.3-.4 4.5-.6 6.3-.6 5.5 0 10.7 0 11.3 15.3.6 17-7.2 28.1-25.6 36.1-8.3 3.6-13.3 4.7-16 5-1.1-16.2-1-30.8.3-43.4m-151.9 0c.8-7.6 15.2-11.1 23.7-12.4 2.3-.4 4.5-.6 6.3-.6 5.5 0 10.7 0 11.3 15.3.6 17-7.2 28.2-25.6 36.1-8.3 3.6-13.3 4.7-16 5-1.1-16.2-1.1-30.8.3-43.4m-134.4 5.7c6.8 12.5 12.2 30.5 15.9 53.7-8.7 1.5-17.5 2.2-26.3 2.2-2 0-4.1 0-6.1-.1 5.2-23.8 10.8-42.5 16.5-55.8M434.3 695.8c.1-.4.2-.7.3-1 .2 0 .4.1.6.1 2.8.7 5.1 7.3 5.8 16.8.3 3.7-.7 4.9-1.2 5.5-.7.8-2.9 2.7-8.3 4.4.3-13.4 1.6-21.3 2.8-25.8m15.9 89.6c-7.4 2.1-11.8 2.5-14.2 2.5h-.3c-.7-2.3-1.6-6.4-2.3-13.6 8.2 0 18.7 1.3 22 7.2l.8 1.6c-1 .6-2.9 1.5-6 2.3m45.3-62.8c1.3 8.8 2 17.2 2 25.4-2.9-2.8-6.1-5.4-9.7-8 3.3-7.1 5.5-14.4 6.5-21.8.4.3.7.6 1.1.9-.1 1.2 0 2.3.1 3.5m89.3 9.6c-1.2.6-2.3 1-3.2 1.4-.4-8.2-.2-15.8.5-22.5.6-.6 3.4-2.5 11.4-3.8 1.3-.2 2.4-.3 3.4-.3.6 0 1.1 0 1.4.1.3.7.7 2.2.8 5 .2 6.8-1.4 14-14.3 20.1m61.9-54.4c-10.4-18.5-27.1-24.2-38.1-25.9-.6-.1-1.3-.2-2-.2-1.5 0-3-.1-4.4-.1-27.6 0-44.9 8.1-55.8 18.7-1-1.4-2.1-2.9-3.3-4.3-6.8-7.7-16.1-11.8-26.8-11.8-10.8 0-20.1 4.1-26.9 11.9-1.5 1.8-2.9 3.6-4.1 5.4-8.3-16-20-26.1-35.2-30-3.5-.9-7-1.5-10.4-1.8 1.9-2.1 3.3-4.7 3.8-7.6 3.2-16.5 5.2-32.1 5.9-46.6 11.7 2.5 23.5 3.8 35.4 3.8 2.6 0 5.3-.1 8-.2 1.1 17.4 1.9 29 2.3 34.6.3 4.6 2.6 8.9 6.3 11.6 2.8 2.1 6.2 3.2 9.7 3.2 1.1 0 2.2-.1 3.3-.3l32.3-6.8c3.1-.7 5.9-2.2 8-4.3l19.8 7.8c1.9.7 3.9 1.1 5.9 1.1 2.7 0 5.3-.7 7.8-2 4.2-2.3 7.1-6.4 8-11.1 1.2-6.4 2.9-13.4 5.1-20.8 12.2 3.2 24.2 4.8 35.8 4.8 9 0 17.8-1 26.5-2.9 1.9 9 3.5 18.8 4.9 29.2.7 5.1 3.7 9.5 8.2 12 2.4 1.3 5 2 7.7 2 2.3 0 4.7-.5 6.8-1.5l25.6-12c1.5 8.7 3.1 17.6 4.9 26.7.8 4.3 3.4 8.1 7.1 10.4-9-1.7-18.2-2.6-27.5-2.6-17.8.1-36.1 3.3-54.6 9.6m205.6-18c-17.1 0-29.5 7.2-35.9 20l-16.4-1h-1c-8.1 0-15.1 6.2-15.9 14.4-1.4 13.3-2.4 27.4-3.1 42.2-.8 0-1.7.1-2.6.1-5 0-10.2-.6-15.5-1.9.4-20 .2-22.6 0-24-.4-4.8-2.9-9.2-6.9-11.9-.8-.5-1.6-1-2.5-1.4l.6-2.2c2.4-8.5-2.4-17.3-10.9-19.8-1-.3-2.1-.6-3.1-.9 1.8-.2 3.6-.7 5.3-1.6l36.7-18.5c7.6-3.8 10.9-12.9 7.5-20.7-8.1-18.7-13.4-35.2-15.6-49.3 17.6-.2 36.8-6.1 57.2-17.5 11.2-6.3 20.3-14.3 27.4-24.1 1.8 33.8 7.1 73.1 15.9 118.8.1.5.2 1 .4 1.5-5.9-1.2-12.2-1.9-19-2.2-.3.1-2.6 0-2.6 0m18.8 101.8c-.8-15-2.7-29.2-5.5-42.2.4 0 .8.1 1.2.2 4.5.6 10.7 1.5 10.9 18.5.1 14.8-3.6 20.8-6.6 23.5m92.7-15.4c1.6-6.5 3.1-12.3 4.7-17.4 1.6 4.9 2.9 10.5 4.1 16.8-2.9.3-5.9.5-8.8.6m71.2 43.7c-.4-3.2-.9-6.3-1.3-9.4 1.9 1.5 3.9 3 5.9 4.5-1.3 1.5-2.9 3.2-4.6 4.9" class="st0"/><path d="m398.5 489.4 35.8-10.6c.3 4.1.2 21.3-.5 51.6 26.3 9.8 51.2 11.7 74.7 5.8.8-29 2.5-56.1 5.1-81.3l36.3 2.2c-9.8 67.9-11.9 120.9-6.4 159l-32.3 6.8c-.5-7.1-1.6-24.1-3.3-50.9-25.5 3.7-50.2 1.3-74.2-7.2.7 19.2-1.3 40.7-5.9 64.7l-29-6.8c5.3-43.7 5.2-88-.3-133.3" class="st17"/><path d="M675.2 583.9c-25.7 10-53.8 9.5-84.3-1.7-4.8 13.9-8.3 26.6-10.4 37.8l-24.1-9.5c23.4-124.6 47.8-187.9 73.3-189.8s44.8 18.1 57.8 60 22.1 87.3 27.3 136.1l-30.5 14.4c-2.3-17.6-5.4-33.4-9.1-47.3m-74.6-30.1c23.7 3.3 47 2.1 69.8-3.8-4.1-33.7-11.1-59-20.9-75.9-9.8-16.9-18.7-16.6-26.6.8-7.9 17.4-15.3 43.7-22.3 78.9" class="st6"/><path d="M822.3 551.8c-25.2 14.2-47.4 18.6-66.6 13.3-.7 19.8 5.4 44.4 18.2 73.9l-36.7 18.5c-15.1-78.1-19.7-138.6-13.9-181.4 5.8-42.9 36.4-63.5 91.6-61.8 29.1 4.5 43.9 25 44.4 61.5.6 36.5-11.7 61.8-37 76m-29.2-20.9c24.4-10.5 36.1-27.6 35.2-51.4-.9-23.7-13-33.7-36.2-30-23.2 3.8-35.6 12.6-37.1 26.6-1.5 13.9-1.6 29.6-.2 47.1 1.2 15.7 13.9 18.3 38.3 7.7" class="st12"/><path d="M974.3 551.8c-25.2 14.2-47.4 18.6-66.6 13.3-.7 19.8 5.4 44.4 18.2 73.9l-36.7 18.5c-15.1-78.1-19.7-138.6-13.9-181.4 5.8-42.9 36.4-63.5 91.6-61.8 29.1 4.5 43.9 25 44.4 61.5.6 36.5-11.8 61.8-37 76M945 530.9c24.4-10.5 36.1-27.6 35.2-51.4-.9-23.7-13-33.7-36.2-30-23.2 3.8-35.6 12.6-37.1 26.6-1.5 13.9-1.6 29.6-.2 47.1 1.2 15.7 13.9 18.3 38.3 7.7" class="st4"/><path d="m1033.4 685.5-24.6-32.2c36.8-26.5 60.3-50 70.7-70.6-27-15.3-48.5-34.6-64.4-57.7l22.3-28.5c14.1 28.3 32.5 49.4 55 63.4 12.1-18.2 23.4-45.3 33.7-81.1l26.4 12.8c-20.9 87.2-60.7 151.9-119.1 193.9" class="st10"/><path d="m400 611-1.2 11.4 29 6.8c2-10.5 3.5-20.6 4.5-30.2-10.9 3.7-21.6 7.7-32.3 12m108.2-33.7c1.5 23.6 2.5 38.7 3 45.3l32.3-6.8c-1.9-13.4-2.9-28.7-2.9-45.8-10.8 2.3-21.6 4.8-32.4 7.3" class="st17"/><path d="M670.2 548.2c.1.6.2 1.1.2 1.7-16.7 4.3-33.7 6.1-50.9 5.5-18 2.9-36 6.1-54 9.5-3.1 14.2-6.2 29.4-9.2 45.6l24.1 9.5c2.1-11.3 5.6-23.9 10.4-37.8 30.5 11.1 58.6 11.7 84.3 1.7 3.8 13.9 6.8 29.6 9.1 47.3l30.5-14.4c-2.7-25.1-6.4-49.3-11.2-72.6-11 1.3-22.2 2.6-33.3 4" class="st6"/><path d="M721.8 542.6c1.9 32.7 7 71 15.5 114.9L774 639c-12.8-29.5-18.9-54.1-18.2-73.9 19.2 5.3 41.4.9 66.6-13.3 7.3-4.1 13.5-9.2 18.7-15.2-40 .3-79.7 2.3-119.3 6" class="st12"/><path d="M974.3 551.8c4.7-2.7 9-5.7 12.9-9.2-37.9-3.3-75.9-5.2-113.7-5.8 1.6 34 6.8 74.2 15.8 120.7L926 639c-12.8-29.5-18.9-54.1-18.2-73.9 19 5.3 41.2.8 66.5-13.3" class="st4"/><path d="m1095.1 555.7-2.7 4.2c-3-1.8-5.9-3.8-8.7-5.9-16.8-2.5-33.6-4.8-50.4-6.7 13 13.5 28.3 25.4 46.2 35.5-10.3 20.5-33.9 44.1-70.7 70.6l24.6 32.2c41.5-29.9 73.5-71.3 96.2-123.9-11.5-2.2-23-4.1-34.5-6" class="st10"/><path d="M446.1 657.1c13.6 3.5 23.6 14.7 29.8 33.5 6.3 18.8 3 37.1-9.9 54.9 22.2 11.6 33 25.1 32.2 40.5s-10.4 26.9-28.7 34.6c-18.3 7.7-35.2 11.3-50.6 10.7S395.5 806.9 395 760c0-54.4 5.1-86 15.3-94.9 10.2-8.8 22.2-11.5 35.8-8m-30.5 83.2c29-1.8 42.8-11.8 41.4-29.9-1.4-18.1-7.4-28.5-18-31.1s-17.3 1.5-20.2 12.3c-2.9 10.8-4 27-3.2 48.7m1 19.2c.4 19.6 2.5 32.6 6.3 39s14.3 7.2 31.6 2.4c17.3-4.8 22.3-13.8 15-27.1-7.3-13.3-25-18-52.9-14.3" class="st19"/><path d="m519.1 832-23.8-9.5c16.3-29.7 21.7-63.8 16-102.2l19.6-3c6.9 39.5 3 77.7-11.8 114.7m17.6-142.1c0 4.5-1.9 8.8-5.6 13.2-3.7 4.3-8.7 6.5-14.8 6.5-6.2 0-11.1-2.2-14.8-6.5-3.7-4.3-5.6-8.7-5.6-13.2s1.9-8.9 5.6-13.2 8.7-6.4 14.8-6.4 11 2.1 14.8 6.4c3.7 4.3 5.6 8.6 5.6 13.2" class="st20"/><path d="M544.9 709.1c3.9-28.6 24.3-42.4 61.2-41.3 19.4 3 30.5 16.4 33.2 40.4 2.7 23.9-10.1 41.7-38.2 53.2 20.8 10.4 35.3 19.7 43.4 27.8l-12.3 20.1c-18.4-15.1-40.3-28.7-65.7-40.6-.5 13.2 3.6 29.7 12.2 49.4l-24.5 12.3c-10.1-52.3-13.2-92.7-9.3-121.3m21.2.1c-1 9.3-1.1 19.8-.2 31.5.9 11.7 9.4 13.7 25.7 6 16.2-7.6 24-19.4 23.5-35.2-.6-15.9-8.7-22.5-24.2-20-15.6 2.4-23.8 8.3-24.8 17.7" class="st15"/><path d="M685.8 711.9c-18 2.9-28.9 5.2-32.8 6.9l-4.2-24.9c31.2-11.1 60.9-12.6 89.1-4.4l-5.8 20.3c-2.9-1.4-11.5-1.5-25.6-.3-3.8 35.3-1.7 68 6.4 98l-26.2 9.3c-3.4-32.9-3.6-67.9-.9-104.9" class="st17"/><path d="m722.2 718 23.9-7.1c.2 2.7.1 14.2-.3 34.5 17.6 6.5 34.2 7.8 49.9 3.9.5-19.4 1.7-37.5 3.4-54.4l24.3 1.5c-6.5 45.4-7.9 80.8-4.3 106.2l-21.6 4.5c-.3-4.7-1.1-16.1-2.2-34-17 2.5-33.6.9-49.6-4.8.5 12.8-.9 27.2-3.9 43.2l-19.4-4.5c3.5-29.1 3.4-58.7-.2-89" class="st4"/><path d="M852.3 675.9h1.9c26.1 1 43.2 9.2 51.1 24.6 7.9 15.4 11 33.1 9.1 53.1s-10 34.5-24.4 43.5-27.1 13.2-38.1 12.8-16.8-10.2-17.3-29.3c-.6-19.1-2.9-45.1-6.9-78-.1-17.8 8.2-26.7 24.6-26.7m16.7 27.8c-16.2-2.3-22.8 3.1-19.7 16.4 3.1 13.2 5 27.7 5.8 43.5s7.5 20.6 20.1 14.3c12.6-6.2 18.7-19.6 18.5-40-.3-20.5-8.5-31.9-24.7-34.2" class="st10"/><path d="M994 781.2c-17.1 6.7-35.9 6.3-56.3-1.1-3.2 9.3-5.5 17.8-6.9 25.3l-16.1-6.3c15.6-83.3 31.9-125.6 49-126.9 17.1-1.3 29.9 12.1 38.6 40.1 8.7 28 14.8 58.3 18.3 91l-20.4 9.6c-1.7-11.9-3.7-22.5-6.2-31.7M944.1 761c15.8 2.2 31.4 1.4 46.6-2.6-2.7-22.5-7.4-39.4-13.9-50.7s-12.5-11.1-17.8.6c-5.2 11.7-10.2 29.2-14.9 52.7" class="st6"/><path d="m1031.4 849.1-16.5-21.5c24.6-17.7 40.3-33.4 47.2-47.2-18.1-10.2-32.4-23.1-43-38.6l14.9-19c9.4 18.9 21.7 33 36.8 42.4 8.1-12.2 15.6-30.2 22.6-54.2l17.7 8.6c-14.1 58.2-40.6 101.4-79.7 129.5" class="st15"/><path d="M1156.2 791.2c0 4.5-1.9 8.8-5.6 13.2-3.7 4.3-8.7 6.5-14.8 6.5-6.2 0-11.1-2.2-14.8-6.5-3.7-4.3-5.6-8.7-5.6-13.2s1.9-8.9 5.6-13.2 8.7-6.4 14.8-6.4c6.1 0 11 2.1 14.8 6.4 3.7 4.3 5.6 8.7 5.6 13.2m-32.8-35.9c-4.2-39.3-2.8-73.9 4.2-104l24.9 2.8c-11 34.4-15.3 67.6-12.9 99.6z" class="st12"/><path d="M471.4 790.2c-2.4 4.7-8 8.2-16.9 10.7-16.5 4.6-26.8 4-31-1.7-2.5.5-5 1-7.5 1.6-5.6 1.3-11.2 2.6-16.8 4.1 3.9 17.2 10.5 26.1 19.8 26.4 15.4.6 32.3-3 50.6-10.7 18.2-7.7 27.7-19.1 28.7-34.3-9.1 1.2-18 2.5-26.9 3.9" class="st19"/><path d="M532.7 779.2c2.5-20.3 1.9-40.9-1.7-61.9l-19.6 3c3.2 22 2.9 42.5-1.1 61.6 7.5-.9 14.9-1.8 22.4-2.7m-23 5.6c-3 13.3-7.8 25.9-14.3 37.7l23.8 9.5c6.5-16.4 10.9-33.1 13.3-50-7.7.9-15.3 1.8-22.8 2.8" class="st20"/><path d="M583.2 776.9c18.4 9.8 34.8 20.5 49.1 32.2l12.3-20.1c-4.7-4.7-11.7-9.9-20.7-15.4-13.7 1-27.2 2.1-40.7 3.3m-21.8 2c-5 .5-10.1 1-15.1 1.6 1.8 15.2 4.4 31.8 7.9 49.8l24.5-12.3c-6.6-15.1-10.5-28.3-11.7-39.5-1.9.1-3.7.3-5.6.4" class="st15"/><path d="M684 770.4c.3 15.9 1.1 31.4 2.6 46.5l26.2-9.3c-3.3-12.2-5.6-24.9-6.9-38-7.3.2-14.6.5-21.9.8" class="st17"/><path d="M724.9 769c-.2 12.8-1 25.4-2.5 37.9l19.4 4.5c3.1-15.9 4.4-30.2 3.9-42.9-7 .1-13.9.3-20.8.5m92.2-1.1c-23.5 0-47.1.2-70.6.6 15.7 5.4 32 7 48.7 4.5 1.1 17.9 1.9 29.3 2.2 34l21.6-4.5c-1.4-10-2-21.5-1.9-34.6" class="st4"/><path d="M886.1 768.6c-2.8 4-6.5 7.1-10.9 9.3-11.3 5.6-17.8 2.3-19.6-9.8-7.2-.1-14.4-.1-21.6-.2.3 4.5.5 8.7.6 12.6.6 19.1 6.3 28.8 17.3 29.3 11 .4 23.7-3.8 38.1-12.8 10.4-6.5 17.4-15.8 21.3-28-8.4-.1-16.8-.3-25.2-.4" class="st10"/><path d="M920.5 769.3c-2 9.2-4 19.1-6 29.7l16.1 6.3c1.4-7.5 3.7-16 6.9-25.3 20.4 7.4 39.2 7.8 56.3 1.1 2.5 9.3 4.5 19.8 6.1 31.6l20.4-9.6c-1.1-10.2-2.5-20.1-4-29.8-31.8-1.7-63.8-3.1-95.8-4" class="st6"/><path d="M1054.8 775.9c2.4 1.5 4.8 3 7.4 4.5-6.9 13.7-22.7 29.4-47.2 47.2l16.5 21.5c24.4-17.6 43.9-41 58.6-70.4-11.8-1-23.5-1.9-35.3-2.8" class="st15"/><path d="M1153.3 781.8c-.8-1.3-1.7-2.5-2.7-3.8-3.7-4.3-8.7-6.4-14.8-6.4-6.2 0-11.1 2.1-14.8 6.4-.1.1-.2.2-.3.4 10.9 1.1 21.7 2.2 32.6 3.4m-34.8-.5c-2.1 3.2-3.1 6.5-3.1 9.9 0 4.5 1.9 8.8 5.6 13.2 3.7 4.3 8.7 6.5 14.8 6.5 6.1 0 11-2.2 14.8-6.5 3.7-4.3 5.6-8.7 5.6-13.2 0-2.1-.4-4.1-1.2-6.2-12.2-1.3-24.3-2.5-36.5-3.7" class="st12"/><path d="m651 1238.3-26.5 33c-12.6-11.2-25.9-16.9-39.9-16.9-8.8 0-13.1 1.8-13.1 5.5 0 2.8 6.4 6.9 19.3 12.2 17.4 7.3 29.4 13.2 36.2 17.9 13.1 8.9 19.6 18.9 19.6 30 0 15.5-6 28.2-18.1 37.9-11.2 9.1-24.8 13.6-40.7 13.6-22.7 0-45.2-12.2-67.7-36.5l26.8-34c5.8 6.4 12.6 12.1 20.3 16.9 9.1 5.5 17.4 8.2 24.8 8.2 7.3 0 10.9-2 10.9-6 0-3.3-7.2-7.7-21.6-13.1-19.3-7.1-32.7-13.1-39.9-17.9-14.4-9.3-21.6-20.4-21.6-33.5 0-14.4 6.9-26.2 20.8-35.5 12.2-8.1 25.9-12.2 40.9-12.2 12.7 0 25.4 2.6 37.9 7.9 13.3 5.6 23.8 13.1 31.6 22.5m-75.9-65.7c.7 5.6-2.3 13.2-8.9 22.8-10.4-5.5-16.6-10.7-18.6-15.9-1.2-4.8.7-7.8 5.5-8.9 3.1-.8 5.7.1 7.7 2.7.5-3.3 2.3-5.3 5.5-6 4.7-1.1 7.7.6 8.8 5.3m55.7-17.2c-1.3 1.7-2.9 3.3-4.7 5-4.5 3.8-9.5 6.9-15.1 9.2-5.8-10.2-8-18.1-6.7-23.6 1.2-3.3 3.5-5 6.9-5 4.5 0 6.9 2.3 7.2 6.9 2.1-2.3 4.8-3 7.9-2 3.3 1.2 5 3.5 5 6.9 0 1-.1 1.8-.5 2.6" style="fill:#c51162"/><path d="M706.1 1222.2c-2.2 30.3-3.2 58-3.2 83.1 0 24.6.3 44 1 58l-44.1 1.5c-1.2-18.4-1.7-38.6-1.7-60.8 0-22.2.9-50 2.7-83.6z" style="fill:#a0f"/><path d="m842.5 1260.4-36 .7-3.2 107.4-43.9-.2-1.2-106.1-40.7 1 1-41.2 122.5-1zm-63.3-77.4c-1 2.3-2.6 4.7-4.7 7.2-5.5 5.8-13.7 11.4-24.8 16.9-9.9-15.2-14.3-27.2-13.1-36 1.7-5.6 5.4-8.4 11.2-8.4 6.8 0 10.6 3.4 11.4 10.2 2.3-3 5.3-4.5 8.9-4.5 3.3 0 6.1 1.1 8.3 3.3 2.2 2.2 3.3 5 3.3 8.3 0 1-.2 2-.5 3m45.4-33.5c.7 5.5-2.4 13-9.2 22.6-10.3-5.5-16.4-10.8-18.4-16.1-1.2-4.8.7-7.7 5.5-8.7 3.1-.8 5.7.1 7.7 2.7.5-3.3 2.3-5.3 5.5-6 4.8-1.1 7.6.7 8.9 5.5" style="fill:#6200ea"/><path d="M980.3 1283.2c0 14.2-2.6 42.9-7.7 86.1l-47.1-6.4 1.2-18.1-26.8.7 1.2 16.9-47.6 6.2c-4.8-43.6-7.2-72.7-7.2-87.3 0-19.7 6.1-35.5 18.4-47.5 12.2-12 28.2-18 47.9-18 19.5 0 35.7 6.4 48.5 19.1 12.7 12.6 19.2 28.8 19.2 48.3m-50.8 5.9c0-5.6-1.3-10.5-4-14.6-3.1-4.8-7.4-7.2-12.6-7.2-5 0-8.8 2-11.5 6.1-2.7 4.1-4.1 8.7-4.1 14 0 11.9.3 22.6 1 32l30.3-.5c.6-8.6.9-18.5.9-29.8m38.8-105.9c-1.3 1.7-2.9 3.3-4.7 5-4.3 3.8-9.3 6.9-14.9 9.4-6-10.1-8.4-17.9-7.2-23.3 1-3.3 3.3-5 6.9-5 4.5 0 6.9 2.2 7.2 6.7 2.1-2.5 4.8-3.2 7.9-2.2 3.3 1.2 5 3.5 5 6.9.2.9.1 1.7-.2 2.5" style="fill:#304ffe"/></svg>