<svg id="fistu" xmlns="http://www.w3.org/2000/svg" xmlns:xlink="http://www.w3.org/1999/xlink" viewBox="0 0 1500 1500"><defs><radialGradient id="grd" cx="50%" cy="50%" r="50%" fx="50%" fy="50%"><stop offset="0%" style="stop-color:rgb(255,255,255); stop-opacity:1"/><stop offset="100%" style="stop-color:rgb(255,255,255);stop-opacity:0.8"/></radialGradient><style>.cls-1{fill:none;}.cls-2{clip-path:url(#clip-path);}.cls-3{fill:#fff;}.cls-4{fill:#beca34;}.cls-5{fill:#cc2529;}.cls-6{fill:#edbf27;}.cls-7{fill:#5db2e4;}.cls-8{fill:#209349;}.cls-9{fill:#883189;}.cls-10{fill:#ae1d85;}.cls-11{fill:#82b140;}.cls-12{fill:#bfc836;}.cls-13{fill:#edbf25;}.cls-14{fill:#f2942e;}.cls-15{fill:#d54328;}.cls-16{fill:#cd2980;}.cls-17{fill:#af2385;}.cls-18{fill:#83348f;}</style><clipPath id="clip-path"><rect class="cls-1" width="1500" height="1500"/></clipPath></defs><title>bday_018</title><g class="cls-2"><rect fill="url('#grd')" width="1500" height="1500"/><polygon class="cls-4" points="17.64 1137.5 25.82 1154.09 44.13 1156.75 30.88 1169.66 34.01 1187.89 17.64 1179.28 1.26 1187.89 4.39 1169.66 -8.85 1156.75 9.45 1154.09 17.64 1137.5"/><polygon class="cls-5" points="139.32 1327.84 149.49 1348.44 172.22 1351.75 155.77 1367.78 159.66 1390.42 139.32 1379.73 118.99 1390.42 122.87 1367.78 106.42 1351.75 129.16 1348.44 139.32 1327.84"/><polygon class="cls-6" points="355.32 1131.4 365.49 1152.01 388.22 1155.31 371.77 1171.34 375.66 1193.98 355.32 1183.29 334.99 1193.98 338.87 1171.34 322.42 1155.31 345.16 1152.01 355.32 1131.4"/><polygon class="cls-7" points="66.79 1026.3 73.41 1039.72 88.22 1041.87 77.51 1052.32 80.03 1067.07 66.79 1060.1 53.55 1067.07 56.08 1052.32 45.36 1041.87 60.17 1039.72 66.79 1026.3"/><polygon class="cls-7" points="208.37 1167.46 215 1180.88 229.8 1183.03 219.09 1193.48 221.62 1208.22 208.37 1201.26 195.13 1208.22 197.66 1193.48 186.94 1183.03 201.75 1180.88 208.37 1167.46"/><polygon class="cls-6" points="156.04 1023.43 159.81 1031.09 168.26 1032.31 162.15 1038.27 163.59 1046.68 156.04 1042.71 148.48 1046.68 149.92 1038.27 143.81 1032.31 152.26 1031.09 156.04 1023.43"/><polygon class="cls-8" points="139.32 1193.98 143.1 1201.64 151.55 1202.87 145.44 1208.82 146.88 1217.23 139.32 1213.26 131.77 1217.23 133.21 1208.82 127.1 1202.87 135.55 1201.64 139.32 1193.98"/><polygon class="cls-5" points="388.22 1286.27 392 1293.92 400.45 1295.15 394.34 1301.11 395.78 1309.52 388.22 1305.55 380.67 1309.52 382.11 1301.11 376 1295.15 384.45 1293.92 388.22 1286.27"/><polygon class="cls-4" points="229.8 1401.47 233.58 1409.12 242.03 1410.35 235.92 1416.31 237.36 1424.72 229.8 1420.75 222.25 1424.72 223.69 1416.31 217.58 1410.35 226.03 1409.12 229.8 1401.47"/><circle class="cls-9" cx="322.42" cy="1476.32" r="22.75"/><circle class="cls-10" cx="45.36" cy="1289.8" r="8.09"/><circle class="cls-4" cx="299.67" cy="1346.76" r="8.09"/><circle class="cls-10" cx="268" cy="1023.43" r="8.09"/><circle class="cls-4" cx="229.28" cy="1112.23" r="12.37"/><circle class="cls-10" cx="376" cy="1359.13" r="12.37"/><circle class="cls-8" cx="248.64" cy="1270.44" r="19.36"/><circle class="cls-8" cx="24.75" cy="1403.42" r="9.68"/><polygon class="cls-4" points="551.25 1134.4 559.44 1150.99 577.74 1153.65 564.5 1166.56 567.62 1184.79 551.25 1176.18 534.88 1184.79 538.01 1166.56 524.76 1153.65 543.07 1150.99 551.25 1134.4"/><polygon class="cls-5" points="672.94 1324.75 683.11 1345.35 705.84 1348.65 689.39 1364.68 693.27 1387.33 672.94 1376.64 652.61 1387.33 656.49 1364.68 640.04 1348.65 662.77 1345.35 672.94 1324.75"/><polygon class="cls-6" points="888.94 1128.31 899.11 1148.91 921.84 1152.21 905.39 1168.25 909.27 1190.89 888.94 1180.2 868.61 1190.89 872.49 1168.25 856.04 1152.21 878.77 1148.91 888.94 1128.31"/><polygon class="cls-7" points="600.41 1023.21 607.03 1036.62 621.84 1038.78 611.12 1049.22 613.65 1063.97 600.41 1057.01 587.16 1063.97 589.69 1049.22 578.98 1038.78 593.78 1036.62 600.41 1023.21"/><polygon class="cls-7" points="741.99 1164.36 748.61 1177.78 763.42 1179.93 752.71 1190.38 755.23 1205.13 741.99 1198.16 728.74 1205.13 731.27 1190.38 720.56 1179.93 735.37 1177.78 741.99 1164.36"/><polygon class="cls-6" points="689.65 1020.34 693.43 1027.99 701.88 1029.22 695.76 1035.17 697.21 1043.59 689.65 1039.62 682.1 1043.59 683.54 1035.17 677.43 1029.22 685.88 1027.99 689.65 1020.34"/><polygon class="cls-8" points="672.94 1190.89 676.72 1198.54 685.16 1199.77 679.05 1205.73 680.49 1214.14 672.94 1210.17 665.38 1214.14 666.83 1205.73 660.72 1199.77 669.16 1198.54 672.94 1190.89"/><polygon class="cls-5" points="921.84 1283.17 925.62 1290.82 934.06 1292.05 927.95 1298.01 929.39 1306.42 921.84 1302.45 914.28 1306.42 915.73 1298.01 909.62 1292.05 918.06 1290.82 921.84 1283.17"/><polygon class="cls-4" points="763.42 1398.38 767.2 1406.03 775.64 1407.26 769.53 1413.21 770.98 1421.63 763.42 1417.65 755.87 1421.63 757.31 1413.21 751.2 1407.26 759.64 1406.03 763.42 1398.38"/><circle class="cls-9" cx="856.04" cy="1473.22" r="22.75"/><circle class="cls-10" cx="578.98" cy="1286.7" r="8.09"/><circle class="cls-4" cx="833.29" cy="1343.66" r="8.09"/><circle class="cls-10" cx="801.62" cy="1020.34" r="8.09"/><circle class="cls-4" cx="762.9" cy="1109.13" r="12.37"/><circle class="cls-10" cx="909.62" cy="1356.04" r="12.37"/><circle class="cls-8" cx="782.26" cy="1267.34" r="19.36"/><circle class="cls-8" cx="558.36" cy="1400.32" r="9.68"/><polygon class="cls-4" points="1117.09 1134.4 1125.28 1150.99 1143.58 1153.65 1130.34 1166.56 1133.46 1184.79 1117.09 1176.18 1100.72 1184.79 1103.85 1166.56 1090.6 1153.65 1108.91 1150.99 1117.09 1134.4"/><polygon class="cls-5" points="1238.78 1324.75 1248.95 1345.35 1271.68 1348.65 1255.23 1364.68 1259.11 1387.33 1238.78 1376.64 1218.45 1387.33 1222.33 1364.68 1205.88 1348.65 1228.61 1345.35 1238.78 1324.75"/><polygon class="cls-6" points="1454.78 1128.31 1464.95 1148.91 1487.68 1152.21 1471.23 1168.25 1475.11 1190.89 1454.78 1180.2 1434.45 1190.89 1438.33 1168.25 1421.88 1152.21 1444.61 1148.91 1454.78 1128.31"/><polygon class="cls-7" points="1166.25 1023.21 1172.87 1036.62 1187.68 1038.78 1176.96 1049.22 1179.49 1063.97 1166.25 1057.01 1153 1063.97 1155.53 1049.22 1144.82 1038.78 1159.62 1036.62 1166.25 1023.21"/><polygon class="cls-7" points="1307.83 1164.36 1314.45 1177.78 1329.26 1179.93 1318.55 1190.38 1321.07 1205.13 1307.83 1198.16 1294.58 1205.13 1297.11 1190.38 1286.4 1179.93 1301.21 1177.78 1307.83 1164.36"/><polygon class="cls-6" points="1255.49 1020.34 1259.27 1027.99 1267.71 1029.22 1261.6 1035.17 1263.05 1043.59 1255.49 1039.62 1247.94 1043.59 1249.38 1035.17 1243.27 1029.22 1251.71 1027.99 1255.49 1020.34"/><polygon class="cls-8" points="1238.78 1190.89 1242.56 1198.54 1251 1199.77 1244.89 1205.73 1246.34 1214.14 1238.78 1210.17 1231.23 1214.14 1232.67 1205.73 1226.56 1199.77 1235 1198.54 1238.78 1190.89"/><polygon class="cls-5" points="1487.68 1283.17 1491.46 1290.82 1499.9 1292.05 1493.79 1298.01 1495.23 1306.42 1487.68 1302.45 1480.13 1306.42 1481.57 1298.01 1475.46 1292.05 1483.9 1290.82 1487.68 1283.17"/><polygon class="cls-4" points="1329.26 1398.38 1333.04 1406.03 1341.48 1407.26 1335.37 1413.21 1336.82 1421.63 1329.26 1417.65 1321.71 1421.63 1323.15 1413.21 1317.04 1407.26 1325.48 1406.03 1329.26 1398.38"/><circle class="cls-9" cx="1421.88" cy="1473.22" r="22.75"/><circle class="cls-10" cx="1144.82" cy="1286.7" r="8.09"/><circle class="cls-4" cx="1399.13" cy="1343.66" r="8.09"/><circle class="cls-10" cx="1367.46" cy="1020.34" r="8.09"/><circle class="cls-4" cx="1328.74" cy="1109.13" r="12.37"/><circle class="cls-10" cx="1475.46" cy="1356.04" r="12.37"/><circle class="cls-8" cx="1348.1" cy="1267.34" r="19.36"/><circle class="cls-8" cx="1124.2" cy="1400.32" r="9.68"/><path class="cls-9" d="M483.08,97.22a50.74,50.74,0,0,1,49.05,63.26c-4.71,19.36-14.85,36.4-23.91,53.88-3.39,6.55-11,14.31-4.92,20.89,3.56,3.83-.77,3.26-4.13,3.69-3.14.4-7.36,2.56-5.16-2.2,3.46-7.48-5.11-10.72-10.05-14.4-21-15.64-41.71-31.59-49.71-58.27C423.85,129.37,447.55,97,483.08,97.22Z"/><path class="cls-3" d="M466.39,111.71c-22.31,10.32-30.79,32.53-19.28,53.9C445,142.73,453.19,126.28,466.39,111.71Z"/><path class="cls-10" d="M736.5,1125c39,16.43,52.19,64.33,27,98.78-15.06,20.56-35.39,35.73-54.65,51.95-7.22,6.08-20,11.5-16,22.27,2.33,6.27-2.51,3.48-6.68,2.33-3.91-1.07-9.95-.58-5-5.12,7.75-7.15-.78-15.17-4.82-21.95-17.16-28.77-33.81-57.76-30.18-93.21C650.77,1134,694.63,1107.36,736.5,1125Z"/><path class="cls-3" d="M709.69,1134c-31.42,1.26-52.32,23.35-49.2,54.25C669.25,1160.15,687,1144.7,709.69,1134Z"/><path class="cls-8" d="M423.45,950.72a50.74,50.74,0,0,1,55.3,57.87c-2.7,19.74-11,37.74-18.24,56.05-2.7,6.87-9.5,15.37-2.74,21.28,3.94,3.45-.43,3.32-3.73,4.09-3.08.72-7.06,3.31-5.36-1.65,2.67-7.8-6.18-10.14-11.48-13.29-22.5-13.39-44.74-27.13-55.44-52.84C367.85,988.79,388.09,954.17,423.45,950.72Z"/><path class="cls-3" d="M408.35,966.85c-21.13,12.56-27.28,35.52-13.63,55.6C390.29,999.91,396.71,982.7,408.35,966.85Z"/><path class="cls-4" d="M1095.19,1102.06c95.14.55,163.81,88.67,141.09,182-13.56,55.68-42.72,104.7-68.77,155-9.76,18.84-31.73,41.15-14.15,60.08,10.24,11-2.21,9.39-11.87,10.61-9,1.14-21.17,7.37-14.84-6.32,9.95-21.53-14.69-30.84-28.92-41.43-60.42-45-120-90.86-143-167.61C924.85,1194.53,993,1101.46,1095.19,1102.06Z"/><path class="cls-3" d="M1047.21,1143.72c-64.19,29.68-88.55,93.57-55.46,155.05C985.78,1233,1009.23,1185.64,1047.21,1143.72Z"/><path class="cls-9" d="M312,1085.22c78.38.45,134.95,73,116.23,149.89C417,1281,393,1321.37,371.53,1362.79c-8,15.52-26.14,33.9-11.66,49.49,8.44,9.08-1.82,7.73-9.78,8.74-7.45.94-17.44,6.07-12.23-5.2,8.19-17.74-12.1-25.41-23.82-34.13-49.78-37.05-98.84-74.85-117.79-138.08C171.63,1161.4,227.78,1084.74,312,1085.22Z"/><path class="cls-3" d="M272.43,1119.55c-52.88,24.45-73,77.08-45.69,127.73C221.82,1193.07,241.14,1154.08,272.43,1119.55Z"/><path class="cls-5" d="M1151.12,225.07c-8,26.68-28.7,42.63-49.71,58.27-4.95,3.68-13.51,6.92-10.05,14.4,2.2,4.76-2,2.59-5.16,2.2-3.36-.42-7.69.15-4.13-3.69,6.11-6.58-1.53-14.34-4.92-20.89-9.06-17.48-19.19-34.52-23.91-53.88a50.74,50.74,0,0,1,49.05-63.26C1137.82,158,1161.52,190.38,1151.12,225.07Z"/><path class="cls-3" d="M1138.26,226.62c11.51-21.37,3-43.59-19.28-53.9C1132.18,187.29,1140.33,203.74,1138.26,226.62Z"/><path class="cls-5" d="M890.48,1089.32c2.12,38.31-17.24,68.66-37.14,98.74-4.69,7.09-14.27,15.29-6.29,23.36,5.07,5.14-1.4,4.3-5.66,5.26-4.55,1-9.89,3.79-7.07-2.85,4.84-11.38-8.68-17.86-16.14-24.76-19.91-18.41-41-35.75-56.18-58.62-25.4-38.32-8.8-89.18,34-104.89C841.89,1008.68,887.72,1039.51,890.48,1089.32Z"/><path class="cls-3" d="M874.54,1097.34c4.91-33.07-16.46-57.89-50.19-60.82C848.27,1049.23,866.53,1066.73,874.54,1097.34Z"/><path class="cls-6" d="M884.41,1371c-12.59,46.73-47.78,75.44-83.51,103.61-8.42,6.64-23.13,12.67-16.76,25.51,4,8.16-3.38,4.6-8.85,4.06-5.85-.57-13.34.63-7.35-6.2,10.3-11.72-3.34-24.83-9.56-36-16.58-29.92-35-59-44.14-92.42-15.29-55.95,24.69-110.31,82.12-112.25C858.06,1255.18,900.78,1310.23,884.41,1371Z"/><path class="cls-3" d="M862.15,1374.3c18.95-37.68,3.16-75.85-36.1-92.69C849.68,1306.29,864.64,1334.46,862.15,1374.3Z"/><path class="cls-10" d="M1263.08,1139.75c-17.18,57.33-61.66,91.6-106.8,125.19-10.63,7.91-29,14.87-21.6,30.95,4.72,10.22-4.33,5.57-11.09,4.72-7.21-.91-16.52.31-8.87-7.92,13.13-14.14-3.28-30.8-10.57-44.88-19.46-37.55-41.24-74.17-51.37-115.76-17-69.68,34.32-135.5,105.39-135.91C1234.5,995.7,1285.41,1065.21,1263.08,1139.75Z"/><path class="cls-3" d="M1235.44,1143.08c24.72-45.92,6.52-93.65-41.43-115.82C1222.38,1058.58,1239.9,1093.92,1235.44,1143.08Z"/><path class="cls-7" d="M499.83,1185.22c78.38.45,134.95,73,116.23,149.89-11.17,45.87-35.19,86.25-56.65,127.67-8,15.52-26.14,33.9-11.66,49.49,8.44,9.08-1.82,7.73-9.78,8.74-7.45.94-17.44,6.07-12.23-5.2,8.19-17.74-12.1-25.41-23.82-34.13-49.78-37.05-98.84-74.85-117.79-138.08C359.51,1261.4,415.66,1184.74,499.83,1185.22Z"/><path class="cls-3" d="M460.31,1219.55c-52.88,24.45-73,77.08-45.69,127.73C409.7,1293.07,429,1254.08,460.31,1219.55Z"/><path class="cls-9" d="M636.51,323.24a7.3,7.3,0,0,1,13.34,4.06v16.54h28.78v-23.4h4.76v53.35h-4.76V348.28H649.85v25.51H645V327.3a2.34,2.34,0,0,0-2.42-2.42,2.27,2.27,0,0,0-2,1.09Z"/><path class="cls-9" d="M734.4,371.45a6.56,6.56,0,0,1-5.69,3.12,7.08,7.08,0,0,1-7-6.08c-2.5,4.21-6.79,6.08-11.78,6.08-11.15,0-16.69-9.36-16.69-20,0-12,7.1-20.44,19-20.44a83,83,0,0,1,9.36.7h4.29v32.68a2.71,2.71,0,0,0,2.73,2.73,2.63,2.63,0,0,0,2.26-1.25Zm-12.79-32.61c-2.42,0-7.1-.62-9.83-.62-9.28,0-14.12,7.18-14.12,16.22,0,8.11,3.9,16.07,12.32,16.07a11.51,11.51,0,0,0,10.53-6.4,11,11,0,0,0,1.09-5Z"/><path class="cls-9" d="M740.87,334.4a10.79,10.79,0,0,1,4.13,6.55c2.42-4.91,7.1-6.79,12.17-6.79,11.15,0,16.77,9.21,16.77,20,0,11.93-6.94,20.44-19,20.44a81.73,81.73,0,0,1-9.28-.7v20.28h-4.29V346.25c0-4.13-1-7.18-3.12-9.28Zm4.76,35.41c6.4.62,7.72.7,8.89.7,10.14,0,15-6.55,15-15.91,0-8.89-4.37-16.38-12.17-16.38-5.7,0-11.23,4-11.7,10Z"/><path class="cls-9" d="M783.62,334.4a10.78,10.78,0,0,1,4.13,6.55c2.42-4.91,7.1-6.79,12.17-6.79,11.15,0,16.77,9.21,16.77,20,0,11.93-6.94,20.44-19,20.44a81.7,81.7,0,0,1-9.28-.7v20.28h-4.29V346.25c0-4.13-1-7.18-3.12-9.28Zm4.76,35.41c6.4.62,7.72.7,8.89.7,10.14,0,15-6.55,15-15.91,0-8.89-4.37-16.38-12.17-16.38-5.69,0-11.23,4-11.7,10Z"/><path class="cls-9" d="M826.05,334.16c3.35,2.57,6.24,5.15,6.24,9.28V361c0,6.24,2.73,9.36,8.58,9.36,5.3,0,8.58-2.5,11.78-6.4a5.37,5.37,0,0,0,1.17-3.51V334.79H858v48.13c0,8.5-4.91,13.1-11.54,13.1-7.57,0-11.54-6-11.54-12.17,0-3.35,1.17-7.64,3.9-9.52-7-.7-10.84-4.6-10.84-11.31V343.45c0-2-2.89-4.68-4.29-5.69ZM853,370a17.67,17.67,0,0,1-4.13,3l-3.9,2c-3.9,2.11-5.93,4.52-5.93,8.74,0,4.68,2.57,8.19,7.33,8.19s7.49-3.51,7.49-8.66v-14Z"/><path class="cls-8" d="M657.8,660V664H646.11v22.2c0,4.59,1,7.47,5.18,7.47a7.69,7.69,0,0,0,7-4.37l3,2.22c-2.22,3.85-5.4,6-10.06,6-6.81,0-9.25-4.51-9.25-11.32v-35.6h4.07V660Z"/><path class="cls-8" d="M703.53,678.46c0,11.32-7.62,19.09-18.43,19.09-11,0-18.35-8.07-18.35-19s7.33-19.32,18.43-19.32C696.06,659.22,703.53,667.28,703.53,678.46Zm-32.56,0c0,9,5.48,15.25,14.21,15.25,9,0,14.13-6.73,14.13-15.54,0-9.18-5.55-15.1-14.13-15.1C675.93,663.06,671,669.87,671,678.46Z"/><path class="cls-8" d="M734.76,659.22c3.18,2.44,5.92,4.88,5.92,8.81v16.65c0,5.92,2.59,8.88,8.14,8.88,5,0,8.14-2.37,11.17-6.07a5.1,5.1,0,0,0,1.11-3.33V659.81h4v45.66c0,8.07-4.66,12.43-11,12.43-7.18,0-11-5.7-11-11.54,0-3.18,1.11-7.25,3.7-9-6.66-.67-10.29-4.37-10.29-10.73V668c0-1.85-2.74-4.44-4.07-5.4Zm25.61,34a16.8,16.8,0,0,1-3.92,2.81l-3.7,1.92c-3.7,2-5.62,4.29-5.62,8.29,0,4.44,2.44,7.77,7,7.77s7.1-3.33,7.1-8.21V692.44Z"/><path class="cls-8" d="M811.13,678.46c0,11.32-7.62,19.09-18.43,19.09-11,0-18.35-8.07-18.35-19s7.33-19.32,18.43-19.32C803.65,659.22,811.13,667.28,811.13,678.46Zm-32.56,0c0,9,5.48,15.25,14.21,15.25,9,0,14.14-6.73,14.14-15.54,0-9.18-5.55-15.1-14.14-15.1C783.52,663.06,778.56,669.87,778.56,678.46Z"/><path class="cls-8" d="M820.08,659.22C823,661.36,826,663.88,826,668v16.65c0,6.07,2.66,8.88,8.29,8.88,5.4,0,8.51-2.59,12.14-7.4V659.81h4V691a2.63,2.63,0,0,0,2.67,2.59,2.57,2.57,0,0,0,2.07-1.11l3.4,2.29a6.4,6.4,0,0,1-5.4,2.89,6.7,6.7,0,0,1-6.81-6.59c-3.55,4.59-7.25,6.36-12.51,6.36-7.25,0-11.47-3.4-11.91-10.8V668c0-2.52-2.74-4.44-4.07-5.4Z"/><path class="cls-11" d="M524.47,453.8c7,0,9.92,3.2,9.92,9.76v25.92c0,5.76-3.36,10.08-9.44,10.88,6.08.8,9.44,4.8,9.44,10.08v45.92c0,6.56-2.72,9.44-8.64,9.44h-49v-112Zm-31.36,34.88c0,3.2,2.4,5,5.44,5H512c4.16,0,5.76-1.76,5.76-5v-16c0-2.72-.8-5.12-5.6-5.12h-19Zm5.92,21c-4.64,0-5.92,2.24-5.92,5.28v37h19.2c4.16,0,5.44-1.28,5.44-4.8V514.76c0-2.56-.16-5.12-5.28-5.12Z"/><path class="cls-12" d="M551.18,565.8v-112h12.48c4.64,0,4,3.36,4,8.16V565.8Z"/><path class="cls-13" d="M628.3,453.8c6.72,0,9.28,3,9.28,9.28V500.2c0,5-.8,11.2-9,11.2,3,.32,9.44,2.56,9.44,12v42.4H620.94l-.32-39c0-3.84-1.6-6.08-6.4-6.88-3.68-.8-8-.48-12.64-.48v46.4H584.46v-112Zm-26.72,44.8c0,5.6,3.52,5.12,8.64,5.12H616c3.2,0,4.48-1.6,4.48-5.12V473.8c0-3.52-.64-4.48-4.48-4.48h-14.4Z"/><path class="cls-14" d="M713.42,453.8v13.92c0,2.08-1.12,3.2-3.36,3.2h-17V565.8H675.66V470.92H658.22c-2.56,0-3.36-1.12-3.36-3.2V453.8Z"/><path class="cls-15" d="M784.46,453.8c4.64,0,4,4.64,4,9.44V565.8H771.82V512.68H748.46V565.8H731.82v-112H744.3c5,0,4.16,4.64,4.16,9.44v32.32l13,.16h10.4V453.8Z"/><path class="cls-16" d="M807.66,453.8h45.28c7.68,0,9.44,4.16,9.44,9.44v93c0,5.44-2.24,9.6-9,9.6H807.66Zm38.4,20.48c0-4.16-1.92-5.92-5.76-5.92H823.82v81.92H840.3c4.64,0,5.76-2.24,5.76-5.76Z"/><path class="cls-17" d="M916.94,453.8c5,0,7.68,1.28,9.6,11.2l19.2,100.8H927.66l-15.52-87.2-6.4,34.88c8.32,1.76,10.72,3.2,10.72,3.2s-12.64,19.52-20.64,49.12H878.54l22.56-112Z"/><path class="cls-18" d="M989.26,556.2c0,6.72,0,9.6-6.08,9.6h-11V518.6L948.3,453.8h18.24l14.24,37.6,14.4-37.6h18.24l-24.16,64.8Z"/><path class="cls-9" d="M516.9,828.84l-7.41-17.71h-23l-5.69,13.81a6.82,6.82,0,0,1-6.4,4.21,7.25,7.25,0,0,1-7.1-5.85l4.45-.86a2.69,2.69,0,0,0,2.65,2.11,2.3,2.3,0,0,0,2.26-1.56l20.59-47.66h1.48l23.17,53.51Zm-28.55-22.15h19.27l-8.81-20.9-.86-2.57-.78,2.57Z"/><path class="cls-9" d="M531.18,821.82a20.76,20.76,0,0,0,11.54,3.74c4.76,0,9.2-1.87,9.2-7.1,0-3.35-1.79-5.23-5.38-6.94-6.71-3.2-15.37-4.21-15.37-12.48,0-6.4,5.15-9.83,11.47-9.83,3.2,0,7.49.86,10,2.42l-.86,4a20.78,20.78,0,0,0-9.2-2.34c-4.45,0-6.86,2.18-6.86,5.3,0,6.24,9.44,7.1,15.37,10.69,3.51,2.11,5.38,4.91,5.38,9.13,0,8-6.94,11.23-14.12,11.23A21.34,21.34,0,0,1,529,825.09Z"/><path class="cls-9" d="M566.74,789.45a10.69,10.69,0,0,1,4.21,6.86,13.75,13.75,0,0,1,12.33-7.1c5.23,0,9,2.42,10.76,7.25,2.89-4.68,7-7.25,12.33-7.25,7.33,0,12,4.84,12,12.25v21.22a2.77,2.77,0,0,0,2.81,2.73,2.82,2.82,0,0,0,2.18-1.17l3.51,2.34a6.66,6.66,0,0,1-5.77,3.12,6.89,6.89,0,0,1-7-7V801.54c-.31-5.77-2.89-8.27-7.8-8.27-4.68,0-8.5,2.26-11.39,7.72v27.85h-4.29V802.63c0-5.85-2.5-9.36-7.72-9.36a12.6,12.6,0,0,0-11.39,7.64v27.92h-4.29V801.3c0-4.13-1-7.18-3.12-9.28Z"/><path class="cls-9" d="M639,777a3.32,3.32,0,1,1-3.35-3.35A3.31,3.31,0,0,1,639,777Zm-1,45.63a2.76,2.76,0,0,0,2.73,2.73,2.61,2.61,0,0,0,2.18-1.17l3.59,2.34a6.84,6.84,0,0,1-5.77,3.12,6.94,6.94,0,0,1-7-7V789.84H638Z"/><path class="cls-9" d="M669.47,790v4.29H657.14v23.4c0,4.84,1,7.88,5.46,7.88A8.11,8.11,0,0,0,670,821l3.2,2.34c-2.34,4.06-5.69,6.32-10.61,6.32-7.18,0-9.75-4.76-9.75-11.93V780.16h4.29V790Z"/><path class="cls-9" d="M720.09,826.5a6.56,6.56,0,0,1-5.69,3.12,7.07,7.07,0,0,1-7-6.08c-2.5,4.21-6.79,6.08-11.78,6.08-11.15,0-16.69-9.36-16.69-20,0-12,7.1-20.44,19-20.44a83,83,0,0,1,9.36.7h4.29V822.6a2.71,2.71,0,0,0,2.73,2.73,2.63,2.63,0,0,0,2.26-1.25ZM707.3,793.89c-2.42,0-7.1-.62-9.83-.62-9.28,0-14.12,7.18-14.12,16.22,0,8.11,3.9,16.07,12.33,16.07a11.52,11.52,0,0,0,10.53-6.4,11,11,0,0,0,1.09-5Z"/><path class="cls-9" d="M772.74,774.63c9,0,15.76,5.69,15.76,14,0,4.92-2.34,8.74-5.93,10.61a12.29,12.29,0,0,1-2.34.86l2.5.78a14.81,14.81,0,0,1,8.19,13.73c0,10.53-8.5,15-20.59,15-1.56,0-5.93-.08-9.13-.39l-4.13-.47V779c-2.42,0-3.43.31-4.13,1a4.4,4.4,0,0,0-1.17,2.81h-4.37a8.26,8.26,0,0,1,8-8.19Zm-10.92,50.31c6.94.31,7.25.39,8.81.39,9.36,0,15.68-2.81,15.68-10.76,0-7.64-5.93-11.86-13.1-11.86H765.8v-4.29h6.86a12.62,12.62,0,0,0,8.11-2.57,8.93,8.93,0,0,0,3-7.18c0-6.24-4.13-9.36-10-9.67h-12Z"/><path class="cls-9" d="M840.91,826.5a6.56,6.56,0,0,1-5.69,3.12,7.07,7.07,0,0,1-7-6.08c-2.5,4.21-6.79,6.08-11.78,6.08-11.15,0-16.69-9.36-16.69-20,0-12,7.1-20.44,19-20.44a83,83,0,0,1,9.36.7h4.29V822.6a2.71,2.71,0,0,0,2.73,2.73,2.63,2.63,0,0,0,2.26-1.25Zm-12.79-32.61c-2.42,0-7.1-.62-9.83-.62-9.28,0-14.12,7.18-14.12,16.22,0,8.11,3.9,16.07,12.33,16.07a11.52,11.52,0,0,0,10.53-6.4,11,11,0,0,0,1.09-5Z"/><path class="cls-9" d="M848.16,821.82a20.75,20.75,0,0,0,11.54,3.74c4.76,0,9.2-1.87,9.2-7.1,0-3.35-1.79-5.23-5.38-6.94-6.71-3.2-15.37-4.21-15.37-12.48,0-6.4,5.15-9.83,11.47-9.83,3.2,0,7.49.86,10,2.42l-.86,4a20.79,20.79,0,0,0-9.21-2.34c-4.45,0-6.86,2.18-6.86,5.3,0,6.24,9.44,7.1,15.37,10.69,3.51,2.11,5.38,4.91,5.38,9.13,0,8-6.94,11.23-14.12,11.23A21.34,21.34,0,0,1,846,825.09Z"/><path class="cls-9" d="M886.69,795.84A15,15,0,0,1,899.8,789c8.58,0,12.71,4.37,12.71,12.56v20.9a2.6,2.6,0,0,0,2.73,2.65,2.42,2.42,0,0,0,2.18-1.17l3.59,2.42a7,7,0,0,1-12.79-3.9V801.77c0-6.08-3.2-8.74-9-8.74-5.62,0-9,3-12.56,7.88V828.6H882.4V772h4.29Z"/><path class="cls-9" d="M927.18,789.21c3.35,2.57,6.24,5.15,6.24,9.28V816c0,6.24,2.73,9.36,8.58,9.36,5.3,0,8.58-2.5,11.78-6.4a5.37,5.37,0,0,0,1.17-3.51V789.84h4.21V838c0,8.5-4.91,13.1-11.54,13.1-7.57,0-11.54-6-11.54-12.17,0-3.35,1.17-7.64,3.9-9.52-7-.7-10.84-4.6-10.84-11.31V798.5c0-2-2.89-4.68-4.29-5.69Zm27,35.8a17.67,17.67,0,0,1-4.13,3l-3.9,2c-3.9,2.11-5.93,4.52-5.93,8.74,0,4.68,2.57,8.19,7.33,8.19s7.49-3.51,7.49-8.66v-14Z"/><path class="cls-9" d="M1010.09,826.5a6.56,6.56,0,0,1-5.69,3.12,7.07,7.07,0,0,1-7-6.08c-2.5,4.21-6.79,6.08-11.78,6.08-11.15,0-16.69-9.36-16.69-20,0-12,7.1-20.44,19-20.44a83,83,0,0,1,9.36.7h4.29V822.6a2.71,2.71,0,0,0,2.73,2.73,2.64,2.64,0,0,0,2.26-1.25ZM997.3,793.89c-2.42,0-7.1-.62-9.83-.62-9.28,0-14.12,7.18-14.12,16.22,0,8.11,3.9,16.07,12.32,16.07a11.52,11.52,0,0,0,10.53-6.4,11,11,0,0,0,1.09-5Z"/><path class="cls-9" d="M1021.94,822.52a2.69,2.69,0,0,0,4.92,1.56l3.59,2.34a7.33,7.33,0,0,1-5.93,3.12,7,7,0,0,1-6.86-7V772.21h4.29Z"/><polygon class="cls-4" points="1136.79 613.24 1144.98 629.83 1163.28 632.49 1150.04 645.4 1153.16 663.63 1136.79 655.02 1120.42 663.63 1123.55 645.4 1110.3 632.49 1128.61 629.83 1136.79 613.24"/><polygon class="cls-5" points="1258.48 803.59 1268.65 824.18 1291.38 827.49 1274.93 843.52 1278.81 866.16 1258.48 855.48 1238.15 866.16 1242.03 843.52 1225.58 827.49 1248.31 824.18 1258.48 803.59"/><polygon class="cls-6" points="1474.48 607.15 1484.65 627.75 1507.38 631.05 1490.93 647.08 1494.81 669.73 1474.48 659.04 1454.15 669.73 1458.03 647.08 1441.58 631.05 1464.31 627.75 1474.48 607.15"/><polygon class="cls-7" points="1185.95 502.04 1192.57 515.46 1207.38 517.61 1196.66 528.06 1199.19 542.81 1185.95 535.84 1172.7 542.81 1175.23 528.06 1164.52 517.61 1179.32 515.46 1185.95 502.04"/><polygon class="cls-7" points="1327.53 643.2 1334.15 656.62 1348.96 658.77 1338.24 669.22 1340.77 683.97 1327.53 677 1314.28 683.97 1316.81 669.22 1306.1 658.77 1320.91 656.62 1327.53 643.2"/><polygon class="cls-6" points="1275.19 499.18 1278.97 506.83 1287.41 508.06 1281.3 514.01 1282.75 522.42 1275.19 518.45 1267.64 522.42 1269.08 514.01 1262.97 508.06 1271.41 506.83 1275.19 499.18"/><polygon class="cls-8" points="1258.48 669.73 1262.26 677.38 1270.7 678.61 1264.59 684.56 1266.04 692.98 1258.48 689 1250.93 692.98 1252.37 684.56 1246.26 678.61 1254.7 677.38 1258.48 669.73"/><polygon class="cls-5" points="1507.38 762.01 1511.16 769.66 1519.6 770.89 1513.49 776.85 1514.93 785.26 1507.38 781.29 1499.83 785.26 1501.27 776.85 1495.16 770.89 1503.6 769.66 1507.38 762.01"/><polygon class="cls-4" points="1348.96 877.21 1352.74 884.87 1361.18 886.09 1355.07 892.05 1356.52 900.46 1348.96 896.49 1341.41 900.46 1342.85 892.05 1336.74 886.09 1345.18 884.87 1348.96 877.21"/><circle class="cls-9" cx="1441.58" cy="952.06" r="22.75"/><circle class="cls-10" cx="1164.52" cy="765.54" r="8.09"/><circle class="cls-4" cx="1418.83" cy="822.5" r="8.09"/><circle class="cls-10" cx="1387.16" cy="499.17" r="8.09"/><circle class="cls-4" cx="1348.44" cy="587.97" r="12.37"/><circle class="cls-10" cx="1495.16" cy="834.87" r="12.37"/><circle class="cls-8" cx="1367.8" cy="746.18" r="19.36"/><circle class="cls-8" cx="1143.9" cy="879.16" r="9.68"/><polygon class="cls-4" points="1200.9 145.7 1209.09 162.28 1227.39 164.94 1214.15 177.85 1217.28 196.08 1200.9 187.47 1184.53 196.08 1187.66 177.85 1174.41 164.94 1192.72 162.28 1200.9 145.7"/><polygon class="cls-5" points="1322.59 336.04 1332.76 356.64 1355.49 359.94 1339.04 375.98 1342.92 398.62 1322.59 387.93 1302.26 398.62 1306.14 375.98 1289.69 359.94 1312.43 356.64 1322.59 336.04"/><polygon class="cls-7" points="1250.06 34.5 1256.68 47.91 1271.49 50.07 1260.77 60.51 1263.3 75.26 1250.06 68.3 1236.81 75.26 1239.34 60.51 1228.63 50.07 1243.44 47.91 1250.06 34.5"/><polygon class="cls-7" points="1391.64 175.66 1398.26 189.07 1413.07 191.22 1402.36 201.67 1404.89 216.42 1391.64 209.46 1378.4 216.42 1380.93 201.67 1370.21 191.22 1385.02 189.07 1391.64 175.66"/><polygon class="cls-6" points="1339.3 31.63 1343.08 39.28 1351.53 40.51 1345.42 46.47 1346.86 54.88 1339.3 50.91 1331.75 54.88 1333.19 46.47 1327.08 40.51 1335.53 39.28 1339.3 31.63"/><polygon class="cls-8" points="1322.59 202.18 1326.37 209.83 1334.82 211.06 1328.7 217.02 1330.15 225.43 1322.59 221.46 1315.04 225.43 1316.48 217.02 1310.37 211.06 1318.82 209.83 1322.59 202.18"/><polygon class="cls-4" points="1413.07 409.67 1416.85 417.32 1425.3 418.55 1419.18 424.5 1420.63 432.92 1413.07 428.94 1405.52 432.92 1406.96 424.5 1400.85 418.55 1409.3 417.32 1413.07 409.67"/><circle class="cls-9" cx="1505.69" cy="484.52" r="22.75"/><circle class="cls-10" cx="1228.63" cy="297.99" r="8.09"/><circle class="cls-4" cx="1482.94" cy="354.95" r="8.09"/><circle class="cls-10" cx="1451.27" cy="31.63" r="8.09"/><circle class="cls-4" cx="1412.55" cy="120.42" r="12.37"/><circle class="cls-8" cx="1431.91" cy="278.63" r="19.36"/><circle class="cls-8" cx="1208.02" cy="411.61" r="9.68"/><polygon class="cls-5" points="78.18 845.49 88.34 866.09 111.08 869.39 94.63 885.43 98.51 908.07 78.18 897.38 57.84 908.07 61.73 885.43 45.28 869.39 68.01 866.09 78.18 845.49"/><polygon class="cls-6" points="294.18 649.05 304.35 669.65 327.08 672.96 310.63 688.99 314.51 711.63 294.18 700.94 273.85 711.63 277.73 688.99 261.28 672.96 284.01 669.65 294.18 649.05"/><polygon class="cls-7" points="5.64 543.95 12.27 557.37 27.07 559.52 16.36 569.97 18.89 584.71 5.64 577.75 -7.6 584.71 -5.07 569.97 -15.79 559.52 -0.98 557.37 5.64 543.95"/><polygon class="cls-7" points="147.23 685.11 153.85 698.53 168.66 700.68 157.94 711.12 160.47 725.87 147.23 718.91 133.98 725.87 136.51 711.12 125.8 700.68 140.6 698.53 147.23 685.11"/><polygon class="cls-6" points="94.89 541.08 98.67 548.74 107.11 549.96 101 555.92 102.44 564.33 94.89 560.36 87.34 564.33 88.78 555.92 82.67 549.96 91.11 548.74 94.89 541.08"/><polygon class="cls-8" points="78.18 711.63 81.96 719.28 90.4 720.51 84.29 726.47 85.73 734.88 78.18 730.91 70.62 734.88 72.07 726.47 65.95 720.51 74.4 719.28 78.18 711.63"/><polygon class="cls-5" points="327.08 803.91 330.86 811.57 339.3 812.8 333.19 818.75 334.63 827.16 327.08 823.19 319.52 827.16 320.97 818.75 314.86 812.8 323.3 811.57 327.08 803.91"/><polygon class="cls-4" points="168.66 919.12 172.44 926.77 180.88 928 174.77 933.96 176.21 942.37 168.66 938.4 161.1 942.37 162.55 933.96 156.44 928 164.88 926.77 168.66 919.12"/><circle class="cls-9" cx="261.28" cy="993.97" r="22.75"/><circle class="cls-4" cx="238.53" cy="864.41" r="8.09"/><circle class="cls-10" cx="206.86" cy="541.08" r="8.09"/><circle class="cls-4" cx="168.14" cy="629.88" r="12.37"/><circle class="cls-10" cx="314.85" cy="876.78" r="12.37"/><circle class="cls-8" cx="187.5" cy="788.09" r="19.36"/><polygon class="cls-4" points="20.6 187.6 28.79 204.19 47.09 206.85 33.85 219.76 36.97 237.99 20.6 229.38 4.23 237.99 7.36 219.76 -5.89 206.85 12.42 204.19 20.6 187.6"/><polygon class="cls-5" points="142.29 377.94 152.46 398.54 175.19 401.85 158.74 417.88 162.62 440.52 142.29 429.83 121.96 440.52 125.84 417.88 109.39 401.85 132.12 398.54 142.29 377.94"/><polygon class="cls-6" points="358.29 181.51 368.46 202.1 391.19 205.41 374.74 221.44 378.62 244.09 358.29 233.4 337.96 244.09 341.84 221.44 325.39 205.41 348.12 202.1 358.29 181.51"/><polygon class="cls-7" points="69.76 76.4 76.38 89.82 91.19 91.97 80.47 102.42 83 117.17 69.76 110.2 56.51 117.17 59.04 102.42 48.33 91.97 63.13 89.82 69.76 76.4"/><polygon class="cls-7" points="211.34 217.56 217.96 230.98 232.77 233.13 222.06 243.58 224.59 258.32 211.34 251.36 198.09 258.32 200.62 243.58 189.91 233.13 204.72 230.98 211.34 217.56"/><polygon class="cls-6" points="159 73.53 162.78 81.19 171.23 82.42 165.11 88.37 166.56 96.78 159 92.81 151.45 96.78 152.89 88.37 146.78 82.42 155.22 81.19 159 73.53"/><polygon class="cls-8" points="142.29 244.09 146.07 251.74 154.51 252.97 148.4 258.92 149.84 267.33 142.29 263.36 134.74 267.33 136.18 258.92 130.07 252.97 138.51 251.74 142.29 244.09"/><polygon class="cls-5" points="391.19 336.37 394.97 344.02 403.41 345.25 397.3 351.21 398.75 359.62 391.19 355.65 383.64 359.62 385.08 351.21 378.97 345.25 387.41 344.02 391.19 336.37"/><polygon class="cls-4" points="232.77 451.57 236.55 459.23 244.99 460.45 238.88 466.41 240.32 474.82 232.77 470.85 225.22 474.82 226.66 466.41 220.55 460.45 228.99 459.23 232.77 451.57"/><circle class="cls-9" cx="325.39" cy="526.42" r="22.75"/><circle class="cls-10" cx="48.33" cy="339.9" r="8.09"/><circle class="cls-4" cx="302.64" cy="396.86" r="8.09"/><circle class="cls-10" cx="270.97" cy="73.53" r="8.09"/><circle class="cls-4" cx="232.25" cy="162.33" r="12.37"/><circle class="cls-10" cx="378.97" cy="409.23" r="12.37"/><circle class="cls-8" cx="251.61" cy="320.54" r="19.36"/><circle class="cls-8" cx="27.71" cy="453.52" r="9.68"/></g></svg>