<?xml version="1.0" standalone="no"?>
<!DOCTYPE svg PUBLIC "-//W3C//DTD SVG 20010904//EN"
 "http://www.w3.org/TR/2001/REC-SVG-20010904/DTD/svg10.dtd">
<svg version="1.0" xmlns="http://www.w3.org/2000/svg"
 width="512.000000pt" height="512.000000pt" viewBox="0 0 512.000000 512.000000"
 preserveAspectRatio="xMidYMid meet">
<metadata>
Created by potrace 1.14, written by Peter Selinger 2001-2017
</metadata>
<g transform="translate(0.000000,512.000000) scale(0.100000,-0.100000)"
fill="#000000" stroke="none">
<path d="M2930 3710 c-7 -5 -12 -23 -24 -90 -3 -14 -15 -68 -27 -120 -27 -118
-27 -179 -4 -510 2 -19 6 -84 9 -145 6 -105 8 -135 21 -340 13 -215 23 -379
30 -510 12 -207 17 -260 27 -266 18 -11 48 3 49 22 1 11 2 22 3 27 9 34 17 73
21 102 3 19 12 64 20 100 8 36 19 91 25 123 11 57 12 58 72 88 33 17 64 27 68
22 3 -4 75 -186 159 -403 84 -217 155 -397 158 -400 2 -3 123 -5 269 -5 260 0
264 0 258 20 -7 20 -323 783 -349 840 -14 32 -81 195 -96 232 -9 24 -27 4 282
325 277 286 328 342 323 347 -2 3 -129 4 -281 4 -241 -1 -278 -3 -288 -17 -7
-8 -41 -46 -76 -84 -239 -254 -311 -337 -371 -424 -21 -32 -40 -58 -43 -58 -2
0 6 26 17 58 21 59 53 168 62 212 3 14 7 36 10 50 5 21 20 95 40 195 3 11 9
40 15 65 5 25 12 58 15 74 3 16 10 52 16 80 6 28 12 60 14 71 9 45 37 176 49
231 22 97 43 89 -226 89 -132 0 -242 -2 -247 -5z"/>
<path d="M1850 3364 c-30 -8 -73 -26 -96 -39 -48 -28 -136 -121 -165 -174
l-19 -36 6 122 6 121 -196 -1 c-108 0 -196 -3 -197 -6 -2 -15 -12 -65 -65
-312 -31 -145 -58 -277 -61 -294 -2 -16 -11 -59 -19 -95 -8 -36 -19 -85 -24
-110 -5 -25 -11 -54 -14 -65 -19 -88 -56 -266 -60 -290 -3 -16 -17 -81 -31
-144 -14 -63 -25 -118 -25 -123 0 -4 110 -8 244 -8 268 0 248 -4 261 57 14 71
90 415 106 488 12 50 23 103 26 119 24 147 100 327 154 368 44 33 73 41 115
33 85 -15 87 -90 14 -440 -17 -82 -33 -161 -36 -175 -2 -14 -16 -77 -29 -140
-13 -63 -27 -126 -29 -140 -10 -49 -17 -86 -26 -125 -5 -22 -7 -42 -4 -45 11
-10 486 -6 490 5 2 5 6 21 8 35 3 14 21 106 41 205 20 99 39 189 41 200 2 11
8 43 14 70 6 28 12 60 15 73 2 13 6 31 9 40 3 9 7 33 10 52 11 70 17 92 47
174 58 161 113 219 203 214 107 -6 113 -71 37 -428 -27 -129 -51 -248 -54
-265 -3 -16 -10 -50 -15 -75 -6 -25 -13 -56 -16 -70 -2 -14 -14 -70 -25 -124
-11 -55 -19 -102 -17 -104 3 -2 87 -4 188 -4 l183 -1 -1 94 c-1 84 -4 137 -20
379 -2 36 -6 112 -9 170 -3 58 -8 128 -10 155 -2 28 -7 111 -10 185 -4 74 -9
158 -11 185 -2 28 -6 106 -10 175 -4 69 -8 127 -11 129 -8 10 -131 -18 -181
-41 -61 -28 -148 -98 -183 -146 -59 -82 -57 -79 -64 -57 -36 104 -100 180
-184 218 -59 27 -219 33 -301 11z"/>
</g>
</svg>
